<svg width="82" height="16" viewBox="0 0 82 16" fill="none" xmlns="http://www.w3.org/2000/svg">
<g opacity="0.6">
<path d="M1.209 2.38445C1.87483 2.38445 2.41801 1.83153 2.41801 1.19222C2.41801 0.535637 1.87483 0 1.209 0C0.543175 0 0 0.535637 0 1.19222C0 1.83153 0.543175 2.38445 1.209 2.38445ZM0.262827 12.3197H2.15518V3.68035H0.262827V12.3197Z" fill="white"/>
<path d="M9.24096 5.47732V3.68035H7.06826V1.26134L5.17591 1.81425V3.68035H3.5639V5.47732H5.17591V9.62419C5.17591 11.8704 6.33234 12.6652 9.24096 12.3197V10.6436C7.80417 10.7127 7.06826 10.73 7.06826 9.62419V5.47732H9.24096Z" fill="white"/>
<path d="M12.3318 6.0648C12.3318 5.44276 12.9275 5.14903 13.6109 5.14903C14.3293 5.14903 14.9425 5.46004 15.2579 6.13391L16.8524 5.2527C16.2391 4.11231 15.0476 3.45572 13.6109 3.45572C11.8236 3.45572 10.4044 4.47516 10.4044 6.09935C10.4044 9.19222 15.1177 8.32829 15.1177 9.86609C15.1177 10.5572 14.4694 10.8337 13.6284 10.8337C12.6647 10.8337 11.9638 10.3672 11.6835 9.58963L10.0539 10.5227C10.6146 11.7667 11.8762 12.5443 13.6284 12.5443C15.5207 12.5443 17.0451 11.6112 17.0451 9.88337C17.0451 6.68682 12.3318 7.63715 12.3318 6.0648Z" fill="white"/>
<path d="M19.6764 12.527C20.3948 12.527 20.9905 11.9395 20.9905 11.2311C20.9905 10.5054 20.3948 9.93521 19.6764 9.93521C18.9405 9.93521 18.3623 10.5054 18.3623 11.2311C18.3623 11.9395 18.9405 12.527 19.6764 12.527Z" fill="white"/>
<path d="M29.2406 3.68035V4.90713C28.5747 4.00864 27.5409 3.45572 26.1742 3.45572C23.7913 3.45572 21.8113 5.42549 21.8113 8C21.8113 10.5572 23.7913 12.5443 26.1742 12.5443C27.5409 12.5443 28.5747 11.9914 29.2406 11.0756V12.3197H31.1329V3.68035H29.2406ZM26.4721 10.7646C24.8952 10.7646 23.7037 9.60691 23.7037 8C23.7037 6.39309 24.8952 5.23542 26.4721 5.23542C28.0491 5.23542 29.2406 6.39309 29.2406 8C29.2406 9.60691 28.0491 10.7646 26.4721 10.7646Z" fill="white"/>
<path d="M40.3123 3.68035V4.95896C39.6464 4.02592 38.6127 3.45572 37.2635 3.45572C34.7929 3.45572 32.848 5.44276 32.848 7.91361C32.848 10.3844 34.7929 12.3715 37.2635 12.3715C38.6127 12.3715 39.6464 11.8013 40.3123 10.8683V11.9222C40.3123 13.4255 39.331 14.3067 37.7015 14.3067C36.1771 14.3067 35.5288 13.7192 35.1433 12.9762L33.5138 13.9093C34.2497 15.2916 35.7391 16 37.6665 16C39.9618 16 42.1696 14.7041 42.1696 11.9222V3.68035H40.3123ZM37.5263 10.6264C35.9318 10.6264 34.7403 9.46868 34.7403 7.91361C34.7403 6.35853 35.9318 5.20086 37.5263 5.20086C39.1208 5.20086 40.3123 6.35853 40.3123 7.91361C40.3123 9.46868 39.1208 10.6264 37.5263 10.6264Z" fill="white"/>
<path d="M45.8646 8.79482H52.8383C52.8733 8.55292 52.9084 8.27646 52.9084 8.01728C52.9084 5.52916 51.1212 3.45572 48.5104 3.45572C45.7595 3.45572 43.8847 5.44276 43.8847 8C43.8847 10.5918 45.7595 12.5443 48.6506 12.5443C50.3677 12.5443 51.6818 11.8359 52.4878 10.6609L50.9284 9.76242C50.5079 10.3672 49.7194 10.8337 48.6681 10.8337C47.2664 10.8337 46.1625 10.1425 45.8646 8.79482ZM45.8471 7.2743C46.1099 5.9784 47.0736 5.14903 48.4929 5.14903C49.6318 5.14903 50.7357 5.78834 50.9985 7.2743H45.8471Z" fill="white"/>
<path d="M59.1817 3.45572C57.9902 3.45572 57.0441 3.88769 56.4658 4.78618V3.68035H54.5735V12.3197H56.4658V7.68898C56.4658 5.92657 57.4471 5.20086 58.6911 5.20086C59.8826 5.20086 60.6535 5.89201 60.6535 7.20518V12.3197H62.5459V7.01512C62.5459 4.7689 61.1442 3.45572 59.1817 3.45572Z" fill="white"/>
<path d="M68.7186 12.5443C70.4358 12.5443 71.9251 11.6631 72.661 10.2981L71.0315 9.38229C70.611 10.1771 69.7524 10.7127 68.7011 10.7127C67.1592 10.7127 65.9852 9.55508 65.9852 8C65.9852 6.44492 67.1592 5.28726 68.7011 5.28726C69.7524 5.28726 70.611 5.80562 70.9965 6.61771L72.626 5.68467C71.9251 4.33693 70.4358 3.45572 68.7186 3.45572C66.0728 3.45572 64.0929 5.42549 64.0929 8C64.0929 10.5572 66.0728 12.5443 68.7186 12.5443Z" fill="white"/>
<path d="M79.985 3.68035L77.7422 9.95248L75.1315 3.68035H73.0639L76.7785 12.1641L76.6909 12.3369C76.2529 13.4773 75.587 14.0994 74.3605 14.0302V15.7754C76.3755 15.8963 77.8123 14.7905 78.6358 12.5961L82 3.68035H79.985Z" fill="white"/>
</g>
</svg>
