<svg width="18" height="18" viewBox="0 0 18 18" fill="none" xmlns="http://www.w3.org/2000/svg">
<g opacity="0.2">
<path d="M9 16.5C13.1421 16.5 16.5 13.1421 16.5 9C16.5 4.85786 13.1421 1.5 9 1.5C4.85786 1.5 1.5 4.85786 1.5 9C1.5 13.1421 4.85786 16.5 9 16.5Z" stroke="#1F2020" stroke-width="1.4" stroke-linecap="round" stroke-linejoin="round"/>
<path d="M6.81836 6.75043C6.99469 6.24918 7.34272 5.82651 7.80083 5.55728C8.25893 5.28805 8.79753 5.18963 9.32124 5.27946C9.84495 5.36929 10.32 5.64157 10.6622 6.04807C11.0044 6.45458 11.1916 6.96907 11.1909 7.50043C11.1909 9.00043 8.94086 9.75043 8.94086 9.75043" stroke="#1F2020" stroke-width="1.4" stroke-linecap="round" stroke-linejoin="round"/>
<path d="M9 12.75H9.00667" stroke="#1F2020" stroke-width="1.4" stroke-linecap="round" stroke-linejoin="round"/>
</g>
</svg>
