<svg width="24" height="24" viewBox="0 0 24 24" fill="none" xmlns="http://www.w3.org/2000/svg">
<path fill-rule="evenodd" clip-rule="evenodd" d="M12.8333 2.40039C11.4768 2.40039 10.4 3.52127 10.4 4.87539V5.00469H7.83333C6.4768 5.00469 5.4 6.12556 5.4 7.47969V7.60586H3C1.89543 7.60586 1 8.50129 1 9.60586V21.6059C1 22.7104 1.89543 23.6059 3 23.6059H11C12.1046 23.6059 13 22.7104 13 21.6059V21.2047H15.1667C16.5232 21.2047 17.6 20.0838 17.6 18.7297V18.6004H20.1667C21.5232 18.6004 22.6 17.4795 22.6 16.1254V4.87539C22.6 3.52127 21.5232 2.40039 20.1667 2.40039H12.8333ZM17.6 17.4004H20.1667C20.8352 17.4004 21.4 16.8423 21.4 16.1254V4.87539C21.4 4.15844 20.8352 3.60039 20.1667 3.60039H12.8333C12.1648 3.60039 11.6 4.15845 11.6 4.87539V5.00469H15.1667C16.5232 5.00469 17.6 6.12556 17.6 7.47969V17.4004ZM15.1667 20.0047H13V9.60586C13 8.50129 12.1046 7.60586 11 7.60586H6.6V7.47969C6.6 6.76274 7.16482 6.20469 7.83333 6.20469H15.1667C15.8352 6.20469 16.4 6.76274 16.4 7.47969V18.7297C16.4 19.4466 15.8352 20.0047 15.1667 20.0047ZM11 8.80586H3C2.55817 8.80586 2.2 9.16403 2.2 9.60586V21.6059C2.2 22.0477 2.55817 22.4059 3 22.4059H11C11.4418 22.4059 11.8 22.0477 11.8 21.6059V9.60586C11.8 9.16403 11.4418 8.80586 11 8.80586Z" fill="black"/>
</svg>
