<svg width="24" height="24" viewBox="0 0 24 24" fill="none" xmlns="http://www.w3.org/2000/svg">
<path d="M6.5 2.83325L3.75 6.49992V19.3333C3.75 19.8195 3.94315 20.2858 4.28697 20.6296C4.63079 20.9734 5.0971 21.1666 5.58333 21.1666H18.4167C18.9029 21.1666 19.3692 20.9734 19.713 20.6296C20.0568 20.2858 20.25 19.8195 20.25 19.3333V6.49992L17.5 2.83325H6.5Z" stroke="black" stroke-width="1.2" stroke-linecap="round" stroke-linejoin="round"/>
<path d="M3.75 6.5H20.25" stroke="black" stroke-width="1.2" stroke-linecap="round" stroke-linejoin="round"/>
<path d="M15.6673 10.1667C15.6673 11.1392 15.281 12.0718 14.5934 12.7595C13.9057 13.4471 12.9731 13.8334 12.0007 13.8334C11.0282 13.8334 10.0956 13.4471 9.40793 12.7595C8.72029 12.0718 8.33398 11.1392 8.33398 10.1667" stroke="black" stroke-width="1.2" stroke-linecap="round" stroke-linejoin="round"/>
</svg>
