<?xml version="1.0" standalone="no"?>
<!DOCTYPE svg PUBLIC "-//W3C//DTD SVG 20010904//EN"
 "http://www.w3.org/TR/2001/REC-SVG-20010904/DTD/svg10.dtd">
<svg version="1.0" xmlns="http://www.w3.org/2000/svg"
 width="700.000000pt" height="700.000000pt" viewBox="0 0 700.000000 700.000000"
 preserveAspectRatio="xMidYMid meet">
<metadata>
Created by potrace 1.11, written by Peter Selinger 2001-2013
</metadata>
<g transform="translate(0.000000,700.000000) scale(0.100000,-0.100000)"
fill="#000000" stroke="none">
<path d="M0 3500 l0 -3500 3500 0 3500 0 0 3500 0 3500 -3500 0 -3500 0 0
-3500z m2570 1865 l0 -465 -90 0 -90 0 0 465 0 465 90 0 90 0 0 -465z m2040
-705 l0 -1170 -90 0 -90 0 0 1170 0 1170 90 0 90 0 0 -1170z m-1725 146 c161
-29 255 -92 290 -195 35 -104 45 -580 14 -746 -19 -104 -75 -177 -168 -217
-98 -42 -207 -53 -541 -53 -416 0 -529 20 -628 109 -80 72 -101 181 -101 506
0 221 12 356 39 419 50 115 160 168 396 191 143 14 594 4 699 -14z m-315
-2466 l0 -1170 -90 0 -90 0 0 1170 0 1170 90 0 90 0 0 -1170z m2364 1046 c213
-39 286 -117 306 -323 12 -126 12 -420 0 -546 -23 -240 -117 -309 -458 -338
-174 -15 -544 -6 -667 16 -161 28 -251 88 -288 192 -50 140 -48 706 3 822 73
163 221 202 740 196 200 -2 299 -7 364 -19z m-324 -1751 l0 -465 -90 0 -90 0
0 465 0 465 90 0 90 0 0 -465z"/>
<path d="M2235 4660 c-205 -17 -249 -40 -282 -146 -15 -50 -18 -95 -18 -304 0
-406 14 -426 314 -451 256 -22 632 3 697 46 61 40 79 130 79 400 0 328 -20
394 -128 427 -109 33 -432 47 -662 28z"/>
<path d="M4248 3239 c-250 -22 -273 -60 -273 -444 0 -328 20 -394 129 -427
182 -55 790 -44 883 17 64 42 88 180 80 464 -7 275 -29 337 -130 366 -112 32
-460 44 -689 24z"/>
</g>
</svg>
