<svg width="797" height="180" viewBox="0 0 797 180" fill="none" xmlns="http://www.w3.org/2000/svg">
<g opacity="0.9">
<path d="M210.08 11.3548H189.5V0H245.838V11.3548H225.193V48H210.08V11.3548Z" fill="white"/>
<path d="M264.98 20.3226H287.682C289.826 20.3226 291.369 19.871 292.313 18.9677C293.256 18.0645 293.728 16.9462 293.728 15.6129V15.5484C293.728 14.3011 293.256 13.2258 292.313 12.3226C291.412 11.3763 289.869 10.9032 287.682 10.9032H264.98V20.3226ZM264.98 48H249.995V0H288.583C292.57 0 295.893 0.32258 298.551 0.967741C301.209 1.6129 303.332 2.51613 304.918 3.67742C306.547 4.7957 307.683 6.10753 308.327 7.6129C309.013 9.11828 309.356 10.7312 309.356 12.4516V13.2258C309.356 14.9462 309.034 16.4086 308.391 17.6129C307.791 18.8172 307.019 19.8495 306.076 20.7097C305.175 21.5269 304.211 22.172 303.182 22.6452C302.153 23.1183 301.252 23.4839 300.48 23.7419C301.681 24.086 302.839 24.5591 303.953 25.1613C305.068 25.7634 306.033 26.5376 306.847 27.4839C307.662 28.3871 308.305 29.4409 308.777 30.6452C309.291 31.8495 309.548 33.2258 309.548 34.7742V41.8065C309.548 43.7419 309.634 45.1183 309.806 45.9355C310.02 46.7097 310.234 47.2903 310.449 47.6774V48H295.207C294.992 47.6989 294.821 47.3333 294.692 46.9032C294.564 46.4731 294.499 45.828 294.499 44.9677V39.4194C294.499 36.4946 293.749 34.3656 292.248 33.0323C290.791 31.6559 288.218 30.9677 284.531 30.9677H264.98V48Z" fill="white"/>
<path d="M343.849 10.3871L334.974 28.3871H353.11L343.849 10.3871ZM358.641 39.2258H329.636L325.327 48H310.085L334.267 0H353.689L379.285 48H363.143L358.641 39.2258Z" fill="white"/>
<path d="M380.632 0H412.339C416.969 0 420.999 0.32258 424.429 0.967741C427.902 1.56989 430.882 2.4086 433.369 3.48387C435.898 4.55914 437.978 5.82796 439.607 7.29032C441.236 8.75269 442.523 10.3441 443.466 12.0645C444.452 13.7419 445.138 15.4839 445.524 17.2903C445.91 19.0968 446.103 20.9032 446.103 22.7097V24.6452C446.103 26.3656 445.91 28.1505 445.524 30C445.181 31.8065 444.538 33.5699 443.594 35.2903C442.651 37.0108 441.365 38.6452 439.736 40.1936C438.106 41.7419 436.048 43.0968 433.562 44.2581C431.075 45.4194 428.095 46.3441 424.622 47.0323C421.149 47.6774 417.076 48 412.403 48H380.632V0ZM395.617 36.4516H411.181C415.426 36.4516 418.813 36.043 421.342 35.2258C423.872 34.3656 425.801 33.3333 427.13 32.129C428.502 30.8817 429.381 29.5484 429.767 28.129C430.196 26.6667 430.41 25.3118 430.41 24.0645V23.6774C430.41 22.4731 430.217 21.1613 429.832 19.7419C429.446 18.2796 428.588 16.9247 427.259 15.6774C425.93 14.4301 423.979 13.3979 421.407 12.5806C418.877 11.7634 415.468 11.3548 411.181 11.3548H395.617V36.4516Z" fill="white"/>
<path d="M500.36 0V10.9032H464.731V18H499.524V28.9677H464.731V36.8387H501.003V48H449.939V0H500.36Z" fill="white"/>
<path d="M539.414 48H524.429V0H539.414V48Z" fill="white"/>
<path d="M562.16 0L592.708 30.1935V0H607.5V48H592.708L560.23 16.1935V48H545.438V0H562.16Z" fill="white"/>
</g>
<g opacity="0.9">
<path d="M52.7679 151.771C45.1863 151.771 38.6283 151.048 33.0937 149.6C27.5591 148.076 22.8206 146.095 18.8782 143.657C15.0116 141.219 11.8273 138.438 9.32537 135.314C6.89926 132.114 4.96595 128.876 3.52544 125.6C2.16076 122.248 1.21306 118.933 0.682344 115.657C0.227448 112.381 0 109.41 0 106.743V65.4857H26.6114V105.143C26.6114 107.886 26.9905 110.705 27.7487 113.6C28.5068 116.495 29.9094 119.162 31.9564 121.6C34.0035 123.962 36.8466 125.905 40.4857 127.429C44.1249 128.952 48.8255 129.714 54.5875 129.714C60.2737 129.714 64.8985 128.952 68.4619 127.429C72.101 125.905 74.9441 123.962 76.9912 121.6C79.0382 119.162 80.4408 116.495 81.1989 113.6C81.9571 110.705 82.3362 107.886 82.3362 105.143V65.4857H108.834V106.743C108.834 109.41 108.531 112.381 107.924 115.657C107.393 118.933 106.408 122.248 104.967 125.6C103.527 128.876 101.556 132.114 99.0536 135.314C96.6275 138.438 93.4811 141.219 89.6145 143.657C85.7479 146.095 81.1231 148.076 75.7402 149.6C70.3573 151.048 64.0645 151.771 56.862 151.771H52.7679Z" fill="#F55353"/>
<path d="M144.968 122.171V150.514H118.47V65.4857H181.928C189.51 65.4857 195.84 66.2095 200.92 67.6571C206 69.0286 210.056 70.9714 213.089 73.4857C216.121 76 218.244 78.9333 219.457 82.2857C220.746 85.6381 221.39 89.2571 221.39 93.1429V94.2857C221.39 98.0952 220.746 101.714 219.457 105.143C218.168 108.495 216.008 111.429 212.975 113.943C209.942 116.457 205.886 118.476 200.806 120C195.803 121.448 189.51 122.171 181.928 122.171H144.968ZM144.968 103.086H181.473C185.643 103.086 188.714 102.324 190.685 100.8C192.732 99.2762 193.756 97.0667 193.756 94.1714V93.8286C193.756 90.9333 192.77 88.7238 190.799 87.2C188.827 85.6 185.719 84.8 181.473 84.8H144.968V103.086Z" fill="#F55353"/>
<path d="M280.916 152C273.259 152 266.549 151.352 260.787 150.057C255.025 148.686 250.059 146.895 245.889 144.686C241.719 142.476 238.27 139.924 235.54 137.029C232.811 134.133 230.612 131.124 228.944 128C227.352 124.8 226.215 121.6 225.532 118.4C224.85 115.124 224.509 112.076 224.509 109.257V106.057C224.509 103.314 224.774 100.381 225.305 97.2571C225.912 94.0571 226.973 90.8952 228.489 87.7714C230.081 84.6476 232.204 81.6762 234.858 78.8571C237.587 75.9619 241.075 73.4095 245.32 71.2C249.566 68.9905 254.684 67.2381 260.673 65.9429C266.663 64.6476 273.714 64 281.826 64H286.716C294.601 64 301.462 64.5333 307.3 65.6C313.138 66.6667 318.104 68.0762 322.198 69.8286C326.292 71.581 329.666 73.6 332.319 75.8857C334.973 78.0952 337.058 80.381 338.574 82.7429C340.09 85.1048 341.152 87.4667 341.758 89.8286C342.365 92.1905 342.706 94.3238 342.782 96.2286V96.3429H314.578C314.427 95.8857 314.01 95.0095 313.327 93.7143C312.645 92.3429 311.242 90.9714 309.12 89.6C307.073 88.1524 304.078 86.8952 300.135 85.8286C296.269 84.7619 291.038 84.2286 284.442 84.2286C277.997 84.2286 272.69 84.8762 268.52 86.1714C264.35 87.4667 261.052 89.181 258.626 91.3143C256.276 93.4476 254.608 95.8857 253.622 98.6286C252.712 101.371 252.258 104.229 252.258 107.2V108.457C252.258 111.2 252.826 113.943 253.964 116.686C255.101 119.429 256.92 121.905 259.422 124.114C262 126.248 265.298 128 269.316 129.371C273.41 130.667 278.376 131.314 284.214 131.314C290.507 131.314 295.738 130.819 299.908 129.829C304.154 128.762 307.527 127.543 310.029 126.171C312.531 124.8 314.313 123.467 315.374 122.171C316.436 120.8 316.967 119.81 316.967 119.2V118.971H283.759V102.857H343.351V150.514H327.429C327.353 149.752 327.202 148.8 326.974 147.657C326.747 146.514 326.481 145.333 326.178 144.114C325.875 142.819 325.534 141.6 325.155 140.457C324.776 139.238 324.397 138.171 324.017 137.257C323.108 138.324 321.705 139.695 319.81 141.371C317.914 143.048 315.337 144.686 312.076 146.286C308.892 147.81 304.912 149.143 300.135 150.286C295.435 151.429 289.824 152 283.304 152H280.916Z" fill="#F55353"/>
<path d="M379.639 101.486H419.784C423.575 101.486 426.304 100.686 427.972 99.0857C429.64 97.4857 430.474 95.5048 430.474 93.1429V93.0286C430.474 90.819 429.64 88.9143 427.972 87.3143C426.38 85.6381 423.65 84.8 419.784 84.8H379.639V101.486ZM379.639 150.514H353.141V65.4857H421.376C428.427 65.4857 434.302 66.0571 439.003 67.2C443.704 68.3429 447.457 69.9429 450.262 72C453.143 73.981 455.152 76.3048 456.289 78.9714C457.502 81.6381 458.109 84.4952 458.109 87.5429V88.9143C458.109 91.9619 457.54 94.5524 456.403 96.6857C455.341 98.819 453.977 100.648 452.309 102.171C450.717 103.619 449.011 104.762 447.191 105.6C445.372 106.438 443.78 107.086 442.415 107.543C444.538 108.152 446.585 108.99 448.556 110.057C450.527 111.124 452.233 112.495 453.673 114.171C455.114 115.771 456.251 117.638 457.085 119.771C457.995 121.905 458.45 124.343 458.45 127.086V139.543C458.45 142.971 458.602 145.41 458.905 146.857C459.284 148.229 459.663 149.257 460.042 149.943V150.514H433.089C432.71 149.981 432.407 149.333 432.18 148.571C431.952 147.81 431.838 146.667 431.838 145.143V135.314C431.838 130.133 430.512 126.362 427.858 124C425.28 121.562 420.731 120.343 414.211 120.343H379.639V150.514Z" fill="#F55353"/>
<path d="M519.104 83.8857L503.41 115.771H535.48L519.104 83.8857ZM545.26 134.971H493.971L486.351 150.514H459.399L502.159 65.4857H536.504L581.766 150.514H553.221L545.26 134.971Z" fill="#F55353"/>
<path d="M584.148 65.4857H640.214C648.402 65.4857 655.529 66.0571 661.594 67.2C667.735 68.2667 673.004 69.7524 677.401 71.6571C681.875 73.5619 685.552 75.8095 688.433 78.4C691.314 80.9905 693.588 83.8095 695.256 86.8571C697 89.8286 698.213 92.9143 698.895 96.1143C699.578 99.3143 699.919 102.514 699.919 105.714V109.143C699.919 112.19 699.578 115.352 698.895 118.629C698.289 121.829 697.152 124.952 695.484 128C693.816 131.048 691.541 133.943 688.66 136.686C685.779 139.429 682.14 141.829 677.743 143.886C673.345 145.943 668.076 147.581 661.935 148.8C655.794 149.943 648.591 150.514 640.327 150.514H584.148V65.4857ZM610.645 130.057H638.167C645.673 130.057 651.662 129.333 656.135 127.886C660.608 126.362 664.02 124.533 666.37 122.4C668.796 120.19 670.351 117.829 671.033 115.314C671.791 112.724 672.17 110.324 672.17 108.114V107.429C672.17 105.295 671.829 102.971 671.147 100.457C670.464 97.8667 668.948 95.4667 666.598 93.2571C664.247 91.0476 660.798 89.219 656.249 87.7714C651.776 86.3238 645.748 85.6 638.167 85.6H610.645V130.057Z" fill="#F55353"/>
<path d="M795.863 65.4857V84.8H732.86V97.3714H794.384V116.8H732.86V130.743H797V150.514H706.703V65.4857H795.863Z" fill="#F55353"/>
</g>
<path d="M117.472 169.6V172.84H112.228V169.6H110.044V178H112.228V174.616H117.472V178H119.656V169.6H117.472ZM121.019 173.8C121.019 176.464 123.035 178.144 126.503 178.144C129.971 178.144 131.975 176.464 131.975 173.8C131.975 171.136 129.971 169.456 126.503 169.456C123.035 169.456 121.019 171.136 121.019 173.8ZM123.203 173.8C123.203 172.3 124.355 171.232 126.503 171.232C128.639 171.232 129.791 172.3 129.791 173.8C129.791 175.3 128.639 176.368 126.503 176.368C124.355 176.368 123.203 175.3 123.203 173.8ZM140.17 173.716C141.466 173.548 142.438 172.984 142.438 171.832C142.438 170.524 141.202 169.6 139.15 169.6H133.33V178H139.138C141.598 178 142.786 177.112 142.786 175.72C142.786 174.508 141.886 173.86 140.17 173.716ZM135.514 171.28H139.042C139.798 171.28 140.254 171.592 140.254 172.12C140.254 172.648 139.774 172.96 139.042 172.96H135.514V171.28ZM138.922 176.32H135.514V174.556H139.042C140.002 174.556 140.602 174.76 140.602 175.444C140.602 176.092 140.05 176.32 138.922 176.32ZM151.884 178H154.116L150.276 169.6H146.928L143.088 178H145.248L146.028 176.248H151.104L151.884 178ZM146.76 174.604L148.572 170.524L150.384 174.604H146.76ZM163.96 169.6H157.96C156.124 169.6 154.588 170.428 154.588 172.324C154.588 173.98 155.68 174.712 157.228 174.88L154.228 178H157L159.652 174.916H161.776V178H163.96V169.6ZM158.068 173.272C157.288 173.272 156.772 172.948 156.772 172.324C156.772 171.7 157.288 171.34 158.068 171.34H161.776V173.272H158.068ZM168.106 171.388H171.706V178H173.89V171.388H177.478V169.6H168.106V171.388ZM178.594 178H187.174V176.296H180.778V174.532H185.614V172.924H180.778V171.304H186.934V169.6H178.594V178ZM198.103 178L194.155 173.644L197.731 169.6H195.271L192.859 172.408L190.555 169.6H187.975L191.587 173.692L187.663 178H190.123L192.847 174.976L195.523 178H198.103ZM206.589 169.6V172.84H201.345V169.6H199.161V178H201.345V174.616H206.589V178H208.773V169.6H206.589ZM217.18 169.6L212.764 176.512V169.6H210.628V178H213.988L218.404 171.088V178H220.54V169.6H217.18ZM232.288 178L227.788 173.644L231.916 169.6H229.3L226.06 172.948H224.584V169.6H222.4V178H224.584V174.616H226.084L229.504 178H232.288ZM241.177 178H243.409L239.569 169.6H236.221L232.381 178H234.541L235.321 176.248H240.397L241.177 178ZM236.053 174.604L237.865 170.524L239.677 174.604H236.053Z" fill="white"/>
<circle cx="254" cy="173.5" r="2" fill="white"/>
<path d="M271.884 173.716C273.18 173.548 274.152 172.984 274.152 171.832C274.152 170.524 272.916 169.6 270.864 169.6H265.044V178H270.852C273.312 178 274.5 177.112 274.5 175.72C274.5 174.508 273.6 173.86 271.884 173.716ZM267.228 171.28H270.756C271.512 171.28 271.968 171.592 271.968 172.12C271.968 172.648 271.488 172.96 270.756 172.96H267.228V171.28ZM270.636 176.32H267.228V174.556H270.756C271.716 174.556 272.316 174.76 272.316 175.444C272.316 176.092 271.764 176.32 270.636 176.32ZM281.172 172.576H277.968V169.6H275.784V178H276.696H281.172C283.092 178 284.556 177.22 284.556 175.3C284.556 173.356 283.08 172.576 281.172 172.576ZM285.888 169.6V178H288.072V169.6H285.888ZM281.064 176.212H277.968V174.304H281.064C281.844 174.304 282.372 174.604 282.372 175.252C282.372 175.912 281.844 176.212 281.064 176.212ZM289.923 178H292.107V171.388H297.639V169.6H289.923V178ZM298.109 173.8C298.109 176.464 300.125 178.144 303.593 178.144C307.061 178.144 309.065 176.464 309.065 173.8C309.065 171.136 307.061 169.456 303.593 169.456C300.125 169.456 298.109 171.136 298.109 173.8ZM300.293 173.8C300.293 172.3 301.445 171.232 303.593 171.232C305.729 171.232 306.881 172.3 306.881 173.8C306.881 175.3 305.729 176.368 303.593 176.368C301.445 176.368 300.293 175.3 300.293 173.8ZM319.28 176.212V169.6H311.444C311.312 173.8 310.892 175.516 310.256 176.212H309.32V179.92H311.36V178H318.332V179.92H320.372V176.212H319.28ZM317.096 176.212H312.356C312.572 175.816 312.776 175.252 312.932 174.58C313.184 173.584 313.316 172.372 313.412 171.388H317.096V176.212ZM328.776 169.6V172.84H323.532V169.6H321.348V178H323.532V174.616H328.776V178H330.96V169.6H328.776ZM338.203 172.576H334.999V169.6H332.815V178H333.727H338.203C340.123 178 341.587 177.22 341.587 175.3C341.587 173.356 340.111 172.576 338.203 172.576ZM342.919 169.6V178H345.103V169.6H342.919ZM338.095 176.212H334.999V174.304H338.095C338.875 174.304 339.403 174.604 339.403 175.252C339.403 175.912 338.875 176.212 338.095 176.212ZM346.954 178H355.534V176.296H349.138V174.532H353.974V172.924H349.138V171.304H355.294V169.6H346.954V178ZM367.271 169.6L364.823 174.7L361.511 169.6H359.075L363.191 175.54H364.115L364.103 175.588C363.767 176.248 363.167 176.332 362.615 176.332C362.303 176.332 361.883 176.32 361.367 176.272V177.976C362.015 178.048 362.543 178.072 362.855 178.072C364.691 178.072 365.471 177.304 366.491 175.408L369.635 169.6H367.271ZM377.691 174.964C377.451 175.744 376.515 176.368 374.931 176.368C372.795 176.368 371.715 175.3 371.715 173.8C371.715 172.3 372.771 171.232 374.775 171.232C376.179 171.232 377.271 171.736 377.547 172.504L379.647 172.372C379.287 170.596 377.511 169.456 374.775 169.456C371.439 169.456 369.531 171.124 369.531 173.8C369.531 176.476 371.463 178.144 374.931 178.144C377.823 178.144 379.479 177.028 379.803 175.072L377.691 174.964ZM382.344 169.6C382.104 173.836 382.332 176.272 380.712 176.272C380.592 176.272 380.376 176.26 380.1 176.224V178C380.544 178.036 381.024 178.06 381.288 178.06C384.24 178.06 384.072 175.372 384.312 171.388H388.296V178H390.48V169.6H382.344ZM391.844 173.8C391.844 176.464 393.86 178.144 397.328 178.144C400.796 178.144 402.8 176.464 402.8 173.8C402.8 171.136 400.796 169.456 397.328 169.456C393.86 169.456 391.844 171.136 391.844 173.8ZM394.028 173.8C394.028 172.3 395.18 171.232 397.328 171.232C399.464 171.232 400.616 172.3 400.616 173.8C400.616 175.3 399.464 176.368 397.328 176.368C395.18 176.368 394.028 175.3 394.028 173.8ZM410.994 173.716C412.29 173.548 413.262 172.984 413.262 171.832C413.262 170.524 412.026 169.6 409.974 169.6H404.154V178H409.962C412.422 178 413.61 177.112 413.61 175.72C413.61 174.508 412.71 173.86 410.994 173.716ZM406.338 171.28H409.866C410.622 171.28 411.078 171.592 411.078 172.12C411.078 172.648 410.598 172.96 409.866 172.96H406.338V171.28ZM409.746 176.32H406.338V174.556H409.866C410.826 174.556 411.426 174.76 411.426 175.444C411.426 176.092 410.874 176.32 409.746 176.32ZM421.447 169.6L417.031 176.512V169.6H414.895V178H418.255L422.671 171.088V178H424.807V169.6H421.447ZM435.547 169.6H429.547C427.711 169.6 426.175 170.428 426.175 172.324C426.175 173.98 427.267 174.712 428.815 174.88L425.815 178H428.587L431.239 174.916H433.363V178H435.547V169.6ZM429.655 173.272C428.875 173.272 428.359 172.948 428.359 172.324C428.359 171.7 428.875 171.34 429.655 171.34H433.363V173.272H429.655Z" fill="white"/>
<circle cx="447" cy="173.5" r="2" fill="white"/>
<path d="M463.864 172.792H460.228V171.28H466.348V169.6H460.228H458.044V178H458.956H463.864C465.796 178 467.248 177.232 467.248 175.384C467.248 173.572 465.784 172.792 463.864 172.792ZM463.708 176.32H460.228V174.46H463.708C464.62 174.46 465.064 174.82 465.064 175.384C465.064 175.948 464.62 176.32 463.708 176.32ZM468.468 178H477.048V176.296H470.652V174.532H475.488V172.924H470.652V171.304H476.808V169.6H468.468V178ZM485.552 174.964C485.312 175.744 484.376 176.368 482.792 176.368C480.656 176.368 479.576 175.3 479.576 173.8C479.576 172.3 480.632 171.232 482.636 171.232C484.04 171.232 485.132 171.736 485.408 172.504L487.508 172.372C487.148 170.596 485.372 169.456 482.636 169.456C479.3 169.456 477.392 171.124 477.392 173.8C477.392 176.476 479.324 178.144 482.792 178.144C485.684 178.144 487.34 177.028 487.664 175.072L485.552 174.964ZM498.423 169.6H488.883V178H491.067V171.388H496.239V178H498.423V169.6ZM501.719 169.6C501.479 173.836 501.707 176.272 500.087 176.272C499.967 176.272 499.751 176.26 499.475 176.224V178C499.919 178.036 500.399 178.06 500.663 178.06C503.615 178.06 503.447 175.372 503.687 171.388H507.671V178H509.855V169.6H501.719ZM519.619 178H521.851L518.011 169.6H514.663L510.823 178H512.983L513.763 176.248H518.839L519.619 178ZM514.495 174.604L516.307 170.524L518.119 174.604H514.495ZM520.723 171.388H524.323V178H526.507V171.388H530.095V169.6H520.723V171.388ZM538.64 169.6V172.84H533.396V169.6H531.212V178H533.396V174.616H538.64V178H540.824V169.6H538.64ZM550.587 178H552.819L548.979 169.6H545.631L541.791 178H543.951L544.731 176.248H549.807L550.587 178ZM545.463 174.604L547.275 170.524L549.087 174.604H545.463ZM562.662 169.6H556.662C554.826 169.6 553.29 170.428 553.29 172.324C553.29 173.98 554.382 174.712 555.93 174.88L552.93 178H555.702L558.354 174.916H560.478V178H562.662V169.6ZM556.77 173.272C555.99 173.272 555.474 172.948 555.474 172.324C555.474 171.7 555.99 171.34 556.77 171.34H560.478V173.272H556.77ZM576.904 176.212V169.6H569.068C568.936 173.8 568.516 175.516 567.88 176.212H566.944V179.92H568.984V178H575.956V179.92H577.996V176.212H576.904ZM574.72 176.212H569.98C570.196 175.816 570.4 175.252 570.556 174.58C570.808 173.584 570.94 172.372 571.036 171.388H574.72V176.212ZM585.525 169.6L581.109 176.512V169.6H578.973V178H582.333L586.749 171.088V178H588.885V169.6H585.525ZM598.652 178H600.884L597.044 169.6H593.696L589.856 178H592.016L592.796 176.248H597.872L598.652 178ZM593.528 174.604L595.34 170.524L597.152 174.604H593.528ZM601.848 178H604.032V171.388H609.564V169.6H601.848V178ZM618.165 169.6V172.84H612.921V169.6H610.737V178H612.921V174.616H618.165V178H620.349V169.6H618.165ZM621.712 173.8C621.712 176.464 623.728 178.144 627.196 178.144C630.664 178.144 632.668 176.464 632.668 173.8C632.668 171.136 630.664 169.456 627.196 169.456C623.728 169.456 621.712 171.136 621.712 173.8ZM623.896 173.8C623.896 172.3 625.048 171.232 627.196 171.232C629.332 171.232 630.484 172.3 630.484 173.8C630.484 175.3 629.332 176.368 627.196 176.368C625.048 176.368 623.896 175.3 623.896 173.8ZM641.691 174.964C641.451 175.744 640.515 176.368 638.931 176.368C636.795 176.368 635.715 175.3 635.715 173.8C635.715 172.3 636.771 171.232 638.775 171.232C640.179 171.232 641.271 171.736 641.547 172.504L643.647 172.372C643.287 170.596 641.511 169.456 638.775 169.456C635.439 169.456 633.531 171.124 633.531 173.8C633.531 176.476 635.463 178.144 638.931 178.144C641.823 178.144 643.479 177.028 643.803 175.072L641.691 174.964ZM644.113 171.388H647.713V178H649.897V171.388H653.485V169.6H644.113V171.388ZM661.153 169.6L656.737 176.512V169.6H654.601V178H657.961L662.377 171.088V178H664.513V169.6H661.153ZM676.261 178L671.761 173.644L675.889 169.6H673.273L670.033 172.948H668.557V169.6H666.373V178H668.557V174.616H670.057L673.477 178H676.261ZM685.15 178H687.382L683.542 169.6H680.194L676.354 178H678.514L679.294 176.248H684.37L685.15 178ZM680.026 174.604L681.838 170.524L683.65 174.604H680.026Z" fill="white"/>
</svg>
