<svg width="14" height="14" viewBox="0 0 14 14" fill="none" xmlns="http://www.w3.org/2000/svg">
<path d="M10 1H4C2.34315 1 1 2.34315 1 4V10C1 11.6569 2.34315 13 4 13H10C11.6569 13 13 11.6569 13 10V4C13 2.34315 11.6569 1 10 1Z" stroke="white" stroke-width="1.6" stroke-linecap="round" stroke-linejoin="round"/>
<path d="M9.401 6.62218C9.47504 7.12153 9.38975 7.63151 9.15725 8.07959C8.92475 8.52767 8.55688 8.89103 8.10597 9.11799C7.65506 9.34494 7.14406 9.42394 6.64567 9.34374C6.14727 9.26354 5.68685 9.02823 5.3299 8.67128C4.97295 8.31432 4.73764 7.85391 4.65744 7.35551C4.57724 6.85711 4.65624 6.34612 4.88319 5.89521C5.11015 5.44429 5.47351 5.07643 5.92159 4.84393C6.36967 4.61143 6.87965 4.52613 7.379 4.60018C7.88835 4.67571 8.35991 4.91306 8.72401 5.27716C9.08812 5.64127 9.32547 6.11283 9.401 6.62218Z" stroke="white" stroke-width="1.6" stroke-linecap="round" stroke-linejoin="round"/>
</svg>
