<svg width="18" height="18" viewBox="0 0 18 18" fill="none" xmlns="http://www.w3.org/2000/svg">
<path d="M12.7796 0H10.2221C7.63116 0 5.01674 1.91327 5.01674 6.18771C5.01674 8.40178 5.95509 10.1262 7.67522 11.1068L4.5269 16.8054C4.37763 17.0749 4.37373 17.3803 4.51643 17.6224C4.65575 17.8588 4.91053 18 5.19768 18H6.7903C7.15209 18 7.43418 17.8251 7.56947 17.5188L10.5214 11.745H10.7368V17.2804C10.7368 17.6705 11.066 18 11.4556 18H12.8469C13.2838 18 13.5889 17.6949 13.5889 17.2581V0.787605C13.589 0.323895 13.2562 0 12.7796 0ZM10.7368 9.18021H10.3568C8.88318 9.18021 8.00347 7.97738 8.00347 5.96261C8.00347 3.45741 9.11476 2.56482 10.1548 2.56482H10.7368V9.18021Z" fill="black"/>
</svg>
