<svg width="64" height="64" viewBox="0 0 64 64" fill="none" xmlns="http://www.w3.org/2000/svg">
<circle cx="32" cy="32" r="32" fill="#F2F2F2"/>
<g clip-path="url(#clip0)">
<path d="M44.756 19.1997C44.5294 18.9731 44.1608 18.9731 43.9344 19.1997C43.7063 19.4278 43.7063 19.7961 43.9344 20.0228C47.1216 23.2117 48.8775 27.4502 48.8775 31.9594C48.8775 41.2669 41.3055 48.8377 31.9976 48.8377C22.6915 48.8377 15.1192 41.2657 15.1192 31.9594C15.1192 22.7 22.6153 15.1645 31.8557 15.0868L28.4684 18.4732C28.2403 18.6999 28.2403 19.0684 28.4684 19.2963C28.5809 19.4102 28.7316 19.4673 28.8793 19.4673C29.0271 19.4673 29.1761 19.4102 29.2902 19.2963L33.8535 14.733L29.29 10.17C29.0619 9.94334 28.6948 9.94334 28.4684 10.17C28.2403 10.3981 28.2403 10.7664 28.4684 10.9931L31.4189 13.942C21.7383 14.2535 13.957 22.2029 13.957 31.9564C13.957 41.906 22.0498 49.9999 31.9991 49.9999C41.9501 49.9999 50.0426 41.9058 50.0426 31.9579C50.0429 27.1373 48.164 22.6079 44.756 19.1997Z" fill="#010002"/>
<path d="M29.109 38.3333H30.5757V35.7667H34.5173V34.4833H30.5757V33.0167H34.5173C36.5157 33.0167 38.0923 31.4583 38.0923 29.2583C38.0923 27.0583 36.5157 25.5 34.5173 25.5H29.109V31.6417H27.459V33.0167H29.109V34.4833H27.459V35.7667H29.109V38.3333ZM30.5757 31.6417V26.875H34.5173C35.709 26.875 36.6257 27.7917 36.6257 29.2583C36.6257 30.725 35.709 31.6417 34.5173 31.6417H30.5757Z" fill="black"/>
</g>
<defs>
<clipPath id="clip0">
<rect width="40" height="40" fill="white" transform="translate(12 10)"/>
</clipPath>
</defs>
</svg>
