<svg width="30" height="12" viewBox="0 0 30 12" fill="none" xmlns="http://www.w3.org/2000/svg">
<path d="M14.2188 5.61784V8.93524H13.1523V0.742738H15.9807C16.3184 0.735778 16.654 0.794868 16.9684 0.916598C17.2827 1.03833 17.5695 1.22029 17.8123 1.45197C18.0574 1.6696 18.2525 1.93649 18.3845 2.23471C18.5165 2.53293 18.5822 2.85557 18.5773 3.18094C18.5843 3.50806 18.5196 3.83281 18.3875 4.13293C18.2555 4.43305 18.0593 4.70144 17.8123 4.91972C17.3177 5.38513 16.7072 5.61762 15.9807 5.61719H14.2188V5.61784ZM14.2188 1.75136V4.61118H16.0072C16.2033 4.61692 16.3984 4.58221 16.5801 4.50927C16.7618 4.43633 16.9261 4.32677 17.0624 4.1876C17.1981 4.05748 17.3059 3.90184 17.3795 3.72989C17.4531 3.55794 17.491 3.37317 17.491 3.1865C17.491 2.99983 17.4531 2.81506 17.3795 2.64311C17.3059 2.47116 17.1981 2.31552 17.0624 2.1854C16.9278 2.04329 16.7641 1.93105 16.5822 1.85611C16.4003 1.78117 16.2043 1.74524 16.0072 1.7507H14.2188V1.75136Z" fill="black"/>
<path d="M21.0356 3.14844C21.8239 3.14844 22.4461 3.35631 22.9022 3.77204C23.3584 4.18778 23.5863 4.75778 23.5858 5.48205V8.93672H22.5657V8.15885H22.5194C22.0778 8.79945 21.4905 9.11975 20.7574 9.11975C20.1317 9.11975 19.6082 8.93672 19.1869 8.57067C18.9847 8.40266 18.8231 8.19225 18.7138 7.95477C18.6044 7.71729 18.5502 7.45874 18.555 7.19795C18.555 6.61792 18.7771 6.15665 19.2213 5.81412C19.6656 5.4716 20.2586 5.2999 21.0005 5.29903C21.6338 5.29903 22.1553 5.41342 22.5651 5.6422V5.40165C22.5663 5.22386 22.5274 5.04804 22.4512 4.88693C22.375 4.72581 22.2635 4.58345 22.1246 4.47017C21.8426 4.21908 21.475 4.08207 21.0952 4.08646C20.4995 4.08646 20.0281 4.33442 19.681 4.83034L18.7418 4.24661C19.2584 3.5145 20.0231 3.14844 21.0356 3.14844ZM19.6559 7.22083C19.6552 7.35477 19.6869 7.48694 19.7484 7.60633C19.8099 7.72571 19.8995 7.82887 20.0096 7.90719C20.2454 8.09028 20.5382 8.18727 20.8382 8.18173C21.2883 8.18099 21.7196 8.00422 22.0378 7.69017C22.3911 7.36202 22.5677 6.97701 22.5677 6.53512C22.2352 6.27365 21.7715 6.14292 21.1767 6.14292C20.7435 6.14292 20.3823 6.24598 20.093 6.45211C19.8009 6.66128 19.6559 6.91556 19.6559 7.22083Z" fill="black"/>
<path d="M29.4398 3.33203L25.8788 11.4082H24.7779L26.0994 8.58234L23.7578 3.33203H24.917L26.6094 7.35866H26.6326L28.2786 3.33203H29.4398Z" fill="black"/>
<path d="M9.90984 4.90229C9.91025 4.58157 9.88277 4.2614 9.82771 3.94531H5.33008V5.75795H7.90611C7.8534 6.04746 7.74183 6.32343 7.57813 6.56924C7.41442 6.81504 7.20198 7.02559 6.9536 7.18819V8.3648H8.491C9.39119 7.54575 9.90984 6.33449 9.90984 4.90229Z" fill="#4285F4"/>
<path d="M5.32951 9.50491C6.61654 9.50491 7.70021 9.08787 8.49044 8.36882L6.95303 7.19221C6.52513 7.47852 5.97402 7.64194 5.32951 7.64194C4.08555 7.64194 3.0297 6.81439 2.65213 5.69922H1.06836V6.91178C1.46531 7.69128 2.07398 8.34655 2.82644 8.80446C3.57889 9.26236 4.4455 9.50487 5.32951 9.50491Z" fill="#34A853"/>
<path d="M2.65216 5.69769C2.45255 5.11333 2.45255 4.48052 2.65216 3.89616V2.68359H1.06838C0.734456 3.33933 0.560547 4.06304 0.560547 4.79692C0.560547 5.5308 0.734456 6.25452 1.06838 6.91025L2.65216 5.69769Z" fill="#FBBC04"/>
<path d="M5.32951 1.95312C6.00965 1.94216 6.66684 2.19575 7.15904 2.65909L8.52025 1.31579C7.6571 0.515744 6.51361 0.0765044 5.32951 0.0901525C4.4455 0.0901923 3.57889 0.332701 2.82644 0.790605C2.07398 1.24851 1.46531 1.90379 1.06836 2.68328L2.65213 3.89584C3.0297 2.78068 4.08555 1.95312 5.32951 1.95312Z" fill="#EA4335"/>
</svg>
