<svg width="30" height="10" viewBox="0 0 30 10" fill="none" xmlns="http://www.w3.org/2000/svg">
<path d="M13.0758 9.15162H10.7363L12.1996 0.875H14.539L13.0758 9.15162Z" fill="#00579F"/>
<path d="M21.5569 1.07893C21.0954 0.911465 20.3635 0.726562 19.4585 0.726562C17.1482 0.726562 15.5213 1.85353 15.5113 3.46476C15.4922 4.65352 16.6762 5.31379 17.5617 5.71016C18.4668 6.11519 18.7745 6.37956 18.7745 6.74058C18.7653 7.29506 18.0431 7.55065 17.3695 7.55065C16.4355 7.55065 15.9351 7.41887 15.1745 7.11039L14.8664 6.97815L14.5391 8.83607C15.0878 9.06474 16.0987 9.26767 17.1482 9.27656C19.603 9.27656 21.2011 8.16703 21.22 6.45001C21.2294 5.50782 20.6042 4.78588 19.2563 4.19595C18.438 3.81725 17.9369 3.56189 17.9369 3.17442C17.9465 2.82217 18.3608 2.46137 19.2844 2.46137C20.045 2.4437 20.6038 2.61093 21.0271 2.77828L21.2387 2.86617L21.5569 1.07893Z" fill="#00579F"/>
<path d="M24.6664 6.21951C24.8591 5.74403 25.6005 3.90378 25.6005 3.90378C25.5907 3.92145 25.7927 3.41952 25.9083 3.11139L26.0718 3.82455C26.0718 3.82455 26.5148 5.8057 26.611 6.21951C26.2454 6.21951 25.1285 6.21951 24.6664 6.21951ZM27.5542 0.875H25.7446C25.1866 0.875 24.7626 1.02456 24.5219 1.56172L21.0469 9.15151H23.5016C23.5016 9.15151 23.9058 8.12998 23.9926 7.90997C24.2619 7.90997 26.6499 7.90997 26.9963 7.90997C27.0635 8.20055 27.2755 9.15151 27.2755 9.15151H29.4416L27.5542 0.875Z" fill="#00579F"/>
<path d="M8.78183 0.875L6.49071 6.51886L6.24035 5.37422C5.81677 4.05346 4.48833 2.61847 3.00586 1.90496L5.10445 9.14285H7.57838L11.2556 0.875H8.78183Z" fill="#00579F"/>
<path d="M4.36305 0.875H0.599054L0.560547 1.04223C3.4967 1.72906 5.44126 3.38465 6.24019 5.37457L5.42194 1.57073C5.28723 1.04211 4.87324 0.892437 4.36305 0.875Z" fill="#FAA61A"/>
</svg>
