<svg width="26" height="16" viewBox="0 0 26 16" fill="none" xmlns="http://www.w3.org/2000/svg">
<path d="M16.3154 13.8983H9.66602V2.10547H16.3154V13.8983Z" fill="#FF5F00"/>
<path d="M10.0923 8C10.0923 5.60776 11.2273 3.47683 12.9948 2.10357C11.7023 1.09937 10.0711 0.500001 8.29825 0.500001C4.10132 0.500001 0.699219 3.85781 0.699219 8C0.699219 12.1422 4.10132 15.5 8.29825 15.5C10.0711 15.5 11.7023 14.9006 12.9948 13.8964C11.2273 12.5232 10.0923 10.3922 10.0923 8Z" fill="#EB001B"/>
<path d="M25.2843 8C25.2843 12.1422 21.8822 15.5 17.6853 15.5C15.9125 15.5 14.2813 14.9006 12.9883 13.8964C14.7563 12.5232 15.8913 10.3922 15.8913 8C15.8913 5.60776 14.7563 3.47683 12.9883 2.10357C14.2813 1.09937 15.9125 0.500001 17.6853 0.500001C21.8822 0.500001 25.2843 3.85781 25.2843 8Z" fill="#F79E1B"/>
<path d="M6.41815 8.04857C6.41815 7.72097 6.63569 7.45184 6.99117 7.45184C7.33082 7.45184 7.56012 7.70936 7.56012 8.04857C7.56012 8.38777 7.33082 8.64529 6.99117 8.64529C6.63569 8.64529 6.41815 8.37616 6.41815 8.04857ZM7.94727 8.04857V7.11665H7.53661V7.34294C7.40635 7.17512 7.20871 7.06979 6.94006 7.06979C6.41046 7.06979 5.99527 7.47951 5.99527 8.04857C5.99527 8.61807 6.41046 9.02734 6.94006 9.02734C7.20871 9.02734 7.40635 8.92201 7.53661 8.7542V8.98048H7.94727V8.04857ZM21.8247 8.04857C21.8247 7.72097 22.0423 7.45184 22.3977 7.45184C22.7378 7.45184 22.9667 7.70936 22.9667 8.04857C22.9667 8.38777 22.7378 8.64529 22.3977 8.64529C22.0423 8.64529 21.8247 8.37616 21.8247 8.04857ZM23.3543 8.04857V6.36818H22.9432V7.34294C22.8129 7.17512 22.6153 7.06979 22.3466 7.06979C21.817 7.06979 21.4018 7.47951 21.4018 8.04857C21.4018 8.61807 21.817 9.02734 22.3466 9.02734C22.6153 9.02734 22.8129 8.92201 22.9432 8.7542V8.98048H23.3543V8.04857ZM13.0448 7.43265C13.3094 7.43265 13.4794 7.59645 13.5228 7.88477H12.5428C12.5867 7.61564 12.7522 7.43265 13.0448 7.43265ZM13.0529 7.06979C12.4994 7.06979 12.1122 7.46746 12.1122 8.04857C12.1122 8.64128 12.5152 9.02734 13.0805 9.02734C13.365 9.02734 13.6255 8.95727 13.8548 8.76625L13.6536 8.46587C13.4953 8.5904 13.2935 8.66092 13.104 8.66092C12.8395 8.66092 12.5984 8.53996 12.5392 8.20433H13.9417C13.9457 8.1539 13.9498 8.10302 13.9498 8.04857C13.9457 7.46746 13.5821 7.06979 13.0529 7.06979ZM18.0116 8.04857C18.0116 7.72097 18.2292 7.45184 18.5847 7.45184C18.9243 7.45184 19.1536 7.70936 19.1536 8.04857C19.1536 8.38777 18.9243 8.64529 18.5847 8.64529C18.2292 8.64529 18.0116 8.37616 18.0116 8.04857ZM19.5407 8.04857V7.11665H19.1301V7.34294C18.9994 7.17512 18.8022 7.06979 18.5335 7.06979C18.0039 7.06979 17.5888 7.47951 17.5888 8.04857C17.5888 8.61807 18.0039 9.02734 18.5335 9.02734C18.8022 9.02734 18.9994 8.92201 19.1301 8.7542V8.98048H19.5407V8.04857ZM15.6924 8.04857C15.6924 8.61405 16.0913 9.02734 16.7 9.02734C16.9845 9.02734 17.174 8.96486 17.3794 8.80508L17.1822 8.47748C17.0279 8.58683 16.866 8.64529 16.6878 8.64529C16.3599 8.64128 16.1189 8.40741 16.1189 8.04857C16.1189 7.68973 16.3599 7.45586 16.6878 7.45184C16.866 7.45184 17.0279 7.51031 17.1822 7.61965L17.3794 7.29206C17.174 7.13227 16.9845 7.06979 16.7 7.06979C16.0913 7.06979 15.6924 7.48308 15.6924 8.04857ZM20.9871 7.06979C20.7501 7.06979 20.5959 7.17914 20.4892 7.34294V7.11665H20.0821V8.98048H20.4932V7.93565C20.4932 7.62724 20.6276 7.45586 20.8962 7.45586C20.9794 7.45586 21.0663 7.46746 21.1531 7.50272L21.2797 7.12067C21.1888 7.08541 21.0703 7.06979 20.9871 7.06979ZM9.97841 7.26483C9.78077 7.13629 9.5085 7.06979 9.2082 7.06979C8.72969 7.06979 8.4217 7.29607 8.4217 7.66652C8.4217 7.97046 8.651 8.15791 9.07342 8.21638L9.26744 8.24361C9.49267 8.27485 9.59896 8.33332 9.59896 8.43865C9.59896 8.58281 9.4488 8.66493 9.1684 8.66493C8.88392 8.66493 8.67859 8.57522 8.54019 8.46989L8.34662 8.78544C8.57185 8.94924 8.85633 9.02734 9.16433 9.02734C9.70976 9.02734 10.0259 8.77383 10.0259 8.41901C10.0259 8.09141 9.77715 7.92003 9.36604 7.86156L9.17247 7.83389C8.99473 7.81068 8.85226 7.77587 8.85226 7.6509C8.85226 7.51432 8.98658 7.43265 9.21181 7.43265C9.45287 7.43265 9.68625 7.52236 9.80067 7.59243L9.97841 7.26483ZM15.2772 7.06979C15.0402 7.06979 14.886 7.17914 14.7797 7.34294V7.11665H14.3727V8.98048H14.7833V7.93565C14.7833 7.62724 14.9176 7.45586 15.1863 7.45586C15.2695 7.45586 15.3563 7.46746 15.4432 7.50272L15.5698 7.12067C15.4789 7.08541 15.3604 7.06979 15.2772 7.06979ZM11.7726 7.11665H11.1009V6.55117H10.6858V7.11665H10.3027V7.4871H10.6858V8.33733C10.6858 8.76982 10.8558 9.02734 11.3416 9.02734C11.5197 9.02734 11.7251 8.97289 11.8553 8.88318L11.7368 8.53595C11.6143 8.60602 11.4799 8.64128 11.3732 8.64128C11.1679 8.64128 11.1009 8.51631 11.1009 8.3293V7.4871H11.7726V7.11665ZM5.6321 8.98048V7.81068C5.6321 7.37016 5.34762 7.07381 4.88902 7.06979C4.64796 7.06577 4.39921 7.13986 4.22509 7.4014C4.09484 7.19476 3.88951 7.06979 3.60096 7.06979C3.39925 7.06979 3.20206 7.12826 3.04783 7.34651V7.11665H2.63672V8.98048H3.05145V7.94725C3.05145 7.62367 3.23326 7.45184 3.51412 7.45184C3.78684 7.45184 3.92478 7.62724 3.92478 7.94324V8.98048H4.33997V7.94725C4.33997 7.62367 4.52947 7.45184 4.80219 7.45184C5.08259 7.45184 5.21692 7.62724 5.21692 7.94324V8.98048H5.6321Z" fill="white"/>
</svg>
