<svg width="224" height="44" viewBox="0 0 224 44" fill="none" xmlns="http://www.w3.org/2000/svg">
<path d="M218.074 16.3493L224 27.6984H222.103L220.773 25.1768H212.745L211.423 27.6984H209.533L215.459 16.3493H218.074ZM120.397 21.2371C118.058 21.2371 116.425 21.0847 115.494 20.7809C114.563 20.4754 113.967 19.9001 113.718 19.0509C113.539 18.4641 113.454 17.2548 113.454 15.4213C113.454 13.5539 113.539 12.3446 113.699 11.7917C113.952 10.9311 114.553 10.3471 115.494 10.037C116.436 9.72694 118.072 9.57161 120.397 9.57161C122.734 9.57161 124.368 9.72464 125.292 10.0278C126.218 10.331 126.818 10.9132 127.075 11.7762C127.251 12.363 127.345 13.5763 127.345 15.4213C127.345 17.2778 127.258 18.4797 127.098 19.0325C126.841 19.8932 126.254 20.4754 125.314 20.7809C124.384 21.0847 122.745 21.2371 120.397 21.2371ZM120.397 19.7114C122.984 19.7114 124.511 19.5181 124.973 19.1315C125.435 18.7426 125.663 17.5022 125.663 15.4121C125.663 13.3111 125.435 12.0638 124.977 11.6772C124.527 11.2906 122.995 11.095 120.397 11.095C117.797 11.095 116.271 11.2906 115.815 11.6772C115.363 12.0638 115.135 13.3111 115.135 15.4121C115.135 17.4913 115.363 18.727 115.827 19.1246C116.282 19.5158 117.809 19.7114 120.397 19.7114ZM166.682 0.000244141H168.367V22.0328C168.092 22.0281 167.818 22.0259 167.527 22.0259C167.237 22.0259 166.956 22.0281 166.682 22.0328V0.000244141ZM168.367 35.1842V43.9594H166.682V35.1842C166.956 35.1883 167.237 35.1906 167.527 35.1906C167.818 35.1906 168.092 35.1883 168.367 35.1842ZM119.556 0.144073H121.235V8.9198C120.969 8.91289 120.688 8.9129 120.397 8.9129C120.11 8.9129 119.824 8.91289 119.556 8.9198V0.144073ZM121.235 21.9677V44.0002H119.556V21.9677C119.824 21.9723 120.11 21.9746 120.397 21.9746C120.688 21.9746 120.969 21.9723 121.235 21.9677ZM6.59515 21.3522C9.21767 21.3522 10.8672 21.5069 11.5476 21.817C12.3938 22.2036 12.8155 23.1316 12.8155 24.6015C12.8155 25.9926 12.3064 26.9027 11.2842 27.3342C10.4495 27.6869 8.76458 27.8646 6.21805 27.8646C3.46184 27.8646 1.69178 27.5614 0.903883 26.9522C0.297105 26.4891 0 25.4777 0 23.9203H1.67407C1.67407 24.9927 1.90833 25.6647 2.3837 25.9339C2.85678 26.2037 4.13832 26.3389 6.23405 26.3389C8.28464 26.3389 9.61704 26.24 10.2221 26.0421C10.8335 25.8442 11.1351 25.3632 11.1351 24.6015C11.1351 23.826 10.9072 23.3473 10.4564 23.1586C9.9987 22.9722 8.71316 22.8779 6.59515 22.8779C4.00406 22.8779 2.26771 22.5609 1.37754 21.9315C0.698772 21.4574 0.361673 20.6014 0.361673 19.3651C0.361673 18.028 0.765617 17.1651 1.58265 16.7721C2.39969 16.3786 4.07548 16.183 6.59515 16.183C9.10854 16.183 10.7575 16.4868 11.5476 17.0932C12.175 17.581 12.4852 18.5314 12.4852 19.945H10.8403C10.8403 18.9652 10.5923 18.3473 10.1038 18.0913C9.60618 17.8347 8.43891 17.707 6.59515 17.707C5.01764 17.707 4.04405 17.7295 3.68524 17.7743C2.58253 17.9067 2.04031 18.4325 2.04031 19.3564C2.04031 20.1314 2.33684 20.6595 2.92591 20.9362C3.52011 21.2147 4.74282 21.3522 6.59515 21.3522ZM23.2827 16.3493H35.0469V17.8733H30.0144V27.6984H28.3335V17.8733H23.2827V16.3493ZM45.1307 16.3493H55.9127V17.8733H46.8111V21.1876H55.5979V22.7116H46.8111V26.1744H55.9127V27.6984H45.1307V16.3493ZM91.4858 16.3493H102.262V17.8733H93.1645V21.1876H101.954V22.7116H93.1645V26.1744H102.262V27.6984H91.4858V16.3493ZM138.139 17.8733V16.3493H149.724V17.8756L140.21 26.1744H149.724V27.6984H137.759V26.1721L147.387 17.8733H138.139ZM185.017 16.3493H187.467L197.129 26.2894V16.3493H198.809V27.6984H196.272L186.697 17.8393V27.6984H185.017V16.3493ZM67.2484 16.3493H77.3517C78.3047 16.3493 79.0411 16.6778 79.5548 17.3359C80.0747 17.9947 80.329 18.8709 80.329 19.9651C80.329 20.9046 80.1839 21.6059 79.8873 22.069C79.6753 22.4038 79.3445 22.669 78.8829 22.8687C79.2868 23.0326 79.6079 23.2507 79.8359 23.5136C80.1684 23.8939 80.329 24.3587 80.329 24.9093V27.6984H78.6532V24.9047C78.6532 24.525 78.4698 24.2149 78.115 23.9658C77.7625 23.7138 77.3339 23.5901 76.8317 23.5901H68.9287V27.6984H67.2484V16.3493ZM68.9287 22.0644H76.6643C77.2757 22.0644 77.7265 21.9608 78.0144 21.7497C78.4367 21.4281 78.6532 20.8327 78.6532 19.9697C78.6532 19.1044 78.4407 18.5159 78.0258 18.2058C77.7333 17.9832 77.2757 17.8733 76.6643 17.8733H68.9287V22.0644ZM167.527 34.4916C165.191 34.4916 163.557 34.3391 162.626 34.0354C161.687 33.7322 161.093 33.1569 160.85 32.3054C160.671 31.7186 160.58 30.5099 160.58 28.6758C160.58 26.8084 160.667 25.6014 160.825 25.0485C161.082 24.1856 161.676 23.6016 162.626 23.2915C163.562 22.9814 165.202 22.8284 167.527 22.8284C169.86 22.8284 171.494 22.9791 172.418 23.2823C173.348 23.5855 173.944 24.17 174.205 25.0307C174.384 25.6175 174.469 26.8308 174.469 28.6758C174.469 30.5323 174.388 31.7341 174.223 32.287C173.973 33.15 173.377 33.7322 172.447 34.0354C171.516 34.3391 169.876 34.4916 167.527 34.4916ZM167.527 32.9682C170.117 32.9682 171.641 32.7749 172.098 32.3883C172.56 31.9971 172.79 30.759 172.79 28.6666C172.79 26.5656 172.56 25.3206 172.11 24.9317C171.654 24.5451 170.128 24.3518 167.527 24.3518C164.928 24.3518 163.396 24.5451 162.939 24.9317C162.488 25.3206 162.261 26.5656 162.261 28.6666C162.261 30.7481 162.495 31.9861 162.952 32.3796C163.412 32.7703 164.939 32.9682 167.527 32.9682ZM220.052 23.6551L216.988 17.707H216.562L213.506 23.6551H220.052Z" fill="#050001"/>
<path d="M2.5837 7.20732C2.5837 6.97547 2.52142 6.79598 2.40087 6.66769C2.27574 6.53939 2.09919 6.47439 1.87636 6.47439C1.73124 6.47439 1.60154 6.49683 1.46555 6.5394C1.32729 6.58255 1.20673 6.64295 1.10389 6.71946L0.601671 6.3714C0.733654 6.21146 0.90963 6.08548 1.12617 5.99573C1.345 5.90598 1.58383 5.8611 1.85408 5.8611C2.14376 5.8611 2.39629 5.91289 2.60141 6.01587C2.81338 6.11942 2.97222 6.26784 3.07449 6.46575C3.18419 6.66308 3.2419 6.90126 3.2419 7.17798V9.45447H2.5837V7.20732ZM1.71981 9.50394C1.28673 9.50394 0.961049 9.4142 0.751362 9.23413C0.534819 9.05233 0.429688 8.77792 0.429688 8.40914C0.429688 8.05878 0.527965 7.79587 0.722226 7.6227C0.921057 7.4455 1.21759 7.35748 1.61297 7.35748H2.61284L2.66426 7.91955H1.61925C1.43641 7.91955 1.305 7.95752 1.21302 8.04094C1.1216 8.11976 1.08161 8.24288 1.08161 8.40914C1.08161 8.58922 1.13988 8.72383 1.25987 8.80495C1.37185 8.8947 1.55468 8.93728 1.80265 8.93728C2.05919 8.93728 2.25803 8.9085 2.38944 8.85212C2.51685 8.79574 2.5837 8.706 2.5837 8.58691L2.65968 9.0857C2.59455 9.18005 2.51684 9.25657 2.42943 9.32158C2.33801 9.38256 2.23575 9.42743 2.11519 9.45907C2.00092 9.49014 1.86951 9.50394 1.71981 9.50394ZM6.9717 5.91288H7.65903V9.45447H6.9717V5.91288ZM5.53874 8.06568C5.53874 8.31306 5.60559 8.50406 5.72614 8.64098C5.85356 8.77561 6.02954 8.84292 6.25751 8.84292C6.48719 8.84292 6.65688 8.78251 6.78372 8.66112C6.90885 8.54203 6.9717 8.36887 6.9717 8.14623L7.01855 8.88836C6.94485 9.06326 6.82886 9.20939 6.66374 9.32848C6.50262 9.44527 6.30435 9.50394 6.06324 9.50394C5.67472 9.50394 5.3782 9.37566 5.16794 9.12828C4.95596 8.87687 4.84683 8.5196 4.84683 8.06568V5.91288H5.53874V8.06568ZM11.9596 5.18915V9.45447H11.2677V5.18915H11.9596ZM10.3815 9.51488C10.1273 9.51488 9.90389 9.45908 9.71877 9.34632C9.54279 9.23413 9.40624 9.06786 9.30796 8.85212C9.21198 8.63638 9.16512 8.37808 9.16512 8.07432V7.29477C9.16512 6.98928 9.21198 6.72866 9.30397 6.51292C9.40167 6.29718 9.53137 6.13093 9.70792 6.01817C9.88618 5.90598 10.0981 5.8496 10.3484 5.8496C10.5535 5.8496 10.7478 5.90599 10.9198 6.01357C11.0917 6.12403 11.2346 6.27648 11.3368 6.47439L11.2677 7.19812C11.2677 7.04739 11.2409 6.91967 11.1832 6.81151C11.1317 6.70623 11.0512 6.62512 10.9489 6.56874C10.8461 6.51293 10.7209 6.48589 10.5758 6.48589C10.3484 6.48589 10.1719 6.5578 10.0444 6.70163C9.91988 6.84315 9.85703 7.04508 9.85703 7.30397V8.07432C9.85703 8.3309 9.91988 8.53052 10.0444 8.67032C10.1719 8.81185 10.3484 8.88146 10.5758 8.88146C10.7209 8.88146 10.8461 8.85213 10.9489 8.79345C11.0512 8.73534 11.1317 8.65192 11.1832 8.54433C11.2409 8.43215 11.2677 8.30156 11.2677 8.15083L11.3146 8.897C11.2454 9.07247 11.1317 9.21859 10.9712 9.33768C10.8123 9.45447 10.6118 9.51488 10.3815 9.51488ZM13.5646 5.91288H14.2565V9.45447H13.5646V5.91288ZM17.2178 9.50394C16.9144 9.50394 16.651 9.44297 16.4322 9.32388C16.2156 9.20249 16.0505 9.0276 15.9437 8.79575C15.8231 8.56678 15.7648 8.28833 15.7648 7.96213V7.38682C15.7648 7.0658 15.8231 6.79137 15.9437 6.5624C16.0505 6.33285 16.2156 6.15969 16.4322 6.04061C16.651 5.91922 16.9144 5.8611 17.2178 5.8611C17.5195 5.8611 17.7823 5.91922 17.9988 6.04061C18.2154 6.15969 18.3805 6.33285 18.4965 6.5624C18.6108 6.79137 18.6685 7.0658 18.6685 7.38682V7.97363C18.6685 8.29465 18.6108 8.57138 18.4965 8.80035C18.3805 9.0276 18.2154 9.20249 17.9988 9.32388C17.7823 9.44297 17.5195 9.50394 17.2178 9.50394ZM17.2178 8.84292C17.4612 8.84292 17.644 8.76698 17.776 8.61395C17.9074 8.46092 17.9766 8.24747 17.9766 7.97363V7.38682C17.9766 7.11067 17.9074 6.89896 17.776 6.7488C17.644 6.59807 17.4612 6.52156 17.2178 6.52156C16.9767 6.52156 16.787 6.59807 16.6579 6.7488C16.5259 6.89896 16.4613 7.11067 16.4613 7.38682V7.97363C16.4613 8.24747 16.5259 8.46092 16.6579 8.61395C16.787 8.76698 16.9767 8.84292 17.2178 8.84292ZM24.0718 9.50394C23.7484 9.50394 23.4673 9.44297 23.2393 9.32158C23.0096 9.19846 22.8331 9.01609 22.7125 8.77791C22.5919 8.54204 22.532 8.25208 22.532 7.91955V7.51971C22.532 7.16877 22.5879 6.86789 22.7017 6.62051C22.8199 6.37313 22.9873 6.18443 23.217 6.05441C23.4336 5.92611 23.7015 5.8611 24.0095 5.8611C24.3083 5.8611 24.5586 5.93532 24.7637 6.08144C24.9694 6.2293 25.1299 6.44504 25.239 6.72406C25.3465 7.00251 25.4042 7.33964 25.4042 7.73085V7.96213H23.0319V7.40236H24.746C24.7237 7.11298 24.6568 6.88802 24.5248 6.73096C24.398 6.56873 24.226 6.48819 24.0095 6.48819C23.7484 6.48819 23.5473 6.57563 23.4044 6.7488C23.2616 6.92197 23.1856 7.16648 23.1856 7.48117V7.93279C23.1856 8.22505 23.2684 8.44999 23.4158 8.60705C23.5695 8.76468 23.7929 8.84292 24.0718 8.84292C24.21 8.84292 24.3529 8.81415 24.4917 8.75777C24.6277 8.70139 24.7528 8.62085 24.8619 8.5196L25.3127 8.97581C25.1408 9.14438 24.9402 9.27439 24.7237 9.36472C24.514 9.45907 24.2906 9.50394 24.0718 9.50394ZM28.9083 5.91288H29.6048V10.1218H28.9083V5.91288ZM28.0267 9.51488C27.7701 9.51488 27.5467 9.45908 27.3708 9.34632C27.1874 9.23413 27.0491 9.06786 26.9531 8.85212C26.8548 8.63638 26.8103 8.37808 26.8103 8.07432V7.29477C26.8103 6.98928 26.8548 6.72866 26.9468 6.51292C27.0382 6.29718 27.1765 6.13093 27.3525 6.01817C27.529 5.90598 27.741 5.8496 27.9935 5.8496C28.2055 5.8496 28.3929 5.90599 28.5649 6.01357C28.7363 6.12403 28.8769 6.27648 28.9797 6.47439L28.9083 7.19812C28.9083 7.04739 28.8837 6.91967 28.826 6.81151C28.7746 6.70623 28.694 6.62512 28.5935 6.56874C28.4889 6.51293 28.3706 6.48589 28.2209 6.48589C27.9867 6.48589 27.8147 6.5578 27.6896 6.70163C27.565 6.84315 27.5022 7.04508 27.5022 7.30397V8.07432C27.5022 8.3309 27.565 8.53052 27.6896 8.67032C27.8147 8.81185 27.9867 8.88146 28.2209 8.88146C28.3706 8.88146 28.4889 8.85213 28.5935 8.79345C28.694 8.73534 28.7746 8.65192 28.826 8.54433C28.8837 8.43215 28.9083 8.30156 28.9083 8.15083L28.9574 8.897C28.8906 9.07247 28.7746 9.21859 28.6157 9.33768C28.4552 9.45447 28.2609 9.51488 28.0267 9.51488ZM33.334 5.91288H34.019V9.45447H33.334V5.91288ZM31.901 8.06568C31.901 8.31306 31.9684 8.50406 32.089 8.64098C32.2136 8.77561 32.3901 8.84292 32.6198 8.84292C32.85 8.84292 33.0215 8.78251 33.1466 8.66112C33.2717 8.54203 33.334 8.36887 33.334 8.14623L33.3808 8.88836C33.3048 9.06326 33.1911 9.20939 33.026 9.32848C32.8655 9.44527 32.6666 9.50394 32.4255 9.50394C32.0376 9.50394 31.7405 9.37566 31.5285 9.12828C31.3165 8.87687 31.216 8.5196 31.216 8.06568V5.91288H31.901V8.06568ZM35.6308 5.91288H36.3159V9.45447H35.6308V5.91288ZM37.9294 5.91288H38.619V10.1218H37.9294V5.91288ZM39.5098 9.50394C39.2886 9.50394 39.0989 9.45217 38.9338 9.34632C38.7664 9.24104 38.655 9.0903 38.5744 8.897L38.619 8.15773C38.619 8.31076 38.6481 8.43848 38.7064 8.54663C38.755 8.65191 38.8378 8.73533 38.9384 8.79171C39.043 8.84752 39.1681 8.87686 39.3109 8.87686C39.5389 8.87686 39.7172 8.80495 39.8423 8.66802C39.9674 8.5265 40.0297 8.3309 40.0297 8.07432V7.30801C40.0297 7.04739 39.9674 6.84775 39.8423 6.70393C39.7172 6.5601 39.5389 6.48819 39.3109 6.48819C39.1681 6.48819 39.043 6.51696 38.9384 6.57104C38.8378 6.62512 38.755 6.70623 38.7064 6.81151C38.6481 6.91737 38.619 7.04279 38.619 7.19122L38.5499 6.51062C38.6596 6.30121 38.7956 6.14185 38.9675 6.02967C39.1389 5.91691 39.3263 5.8611 39.5389 5.8611C39.7909 5.8611 40.0005 5.91691 40.1794 6.02967C40.3554 6.14185 40.4936 6.30582 40.5856 6.52156C40.677 6.7373 40.7216 7.00021 40.7216 7.30397V8.07432C40.7216 8.37578 40.677 8.63409 40.5788 8.84752C40.4873 9.06096 40.3445 9.2232 40.1611 9.33538C39.9783 9.44756 39.7617 9.50394 39.5098 9.50394ZM46.4643 7.30801C46.4643 7.0566 46.4014 6.86099 46.27 6.72636C46.1449 6.59117 45.9666 6.52156 45.7318 6.52156C45.5158 6.52156 45.3501 6.58887 45.2301 6.71946C45.1159 6.85178 45.0605 7.04106 45.0605 7.27923L44.9153 6.59807C45.0313 6.3645 45.1719 6.18212 45.3547 6.05441C45.5381 5.92381 45.7387 5.8611 45.9552 5.8611C46.2117 5.8611 46.4237 5.91691 46.6071 6.02967C46.7831 6.14185 46.9259 6.30582 47.0196 6.52156C47.1093 6.7373 47.1625 7.00021 47.1625 7.30397V9.45447H46.4643V7.30801ZM42.2637 5.91288H42.9556V9.45447H42.2637V5.91288ZM44.3685 7.30801C44.3685 7.0566 44.3034 6.86099 44.1852 6.72636C44.0583 6.59117 43.8863 6.52156 43.6652 6.52156C43.4355 6.52156 43.2658 6.58254 43.1384 6.70393C43.0179 6.82301 42.9556 6.99389 42.9556 7.21136L42.8865 6.53076C42.9956 6.31502 43.1344 6.15106 43.3104 6.03427C43.4869 5.91921 43.6812 5.8611 43.8932 5.8611C44.1383 5.8611 44.3503 5.91691 44.5222 6.02967C44.6942 6.14185 44.8302 6.30582 44.9216 6.52156C45.0068 6.7373 45.0605 7.00021 45.0605 7.30397V9.45447H44.3685V7.30801ZM50.2067 9.50394C49.881 9.50394 49.5999 9.44297 49.3725 9.32158C49.1445 9.19846 48.9679 9.01609 48.8457 8.77791C48.7274 8.54204 48.6646 8.25208 48.6646 7.91955V7.51971C48.6646 7.16877 48.7206 6.86789 48.8411 6.62051C48.9571 6.37313 49.1268 6.18443 49.3496 6.05441C49.5662 5.92611 49.8364 5.8611 50.1421 5.8611C50.4415 5.8611 50.6912 5.93532 50.8986 6.08144C51.1088 6.2293 51.2648 6.44504 51.3722 6.72406C51.4859 7.00251 51.5373 7.33964 51.5373 7.73085V7.96213H49.1668V7.40236H50.8808C50.8631 7.11298 50.7894 6.88802 50.658 6.73096C50.5329 6.56873 50.3609 6.48819 50.1421 6.48819C49.8878 6.48819 49.6821 6.57563 49.5376 6.7488C49.3947 6.92197 49.321 7.16648 49.321 7.48117V7.93279C49.321 8.22505 49.401 8.44999 49.5553 8.60705C49.709 8.76468 49.9255 8.84292 50.2067 8.84292C50.3432 8.84292 50.486 8.81415 50.6243 8.75777C50.7603 8.70139 50.8877 8.62085 50.9945 8.5196L51.4476 8.97581C51.2762 9.14438 51.082 9.27439 50.8631 9.36472C50.6466 9.45907 50.4232 9.50394 50.2067 9.50394ZM53.0457 5.91288H53.7376V9.45447H53.0457V5.91288ZM55.1837 7.30801C55.1837 7.0566 55.1191 6.86099 54.9832 6.72636C54.858 6.59117 54.6798 6.52156 54.4472 6.52156C54.2221 6.52156 54.0456 6.58254 53.9273 6.70393C53.8005 6.82301 53.7376 6.99389 53.7376 7.21136L53.6685 6.53076C53.7776 6.31502 53.9165 6.15106 54.0924 6.03427C54.269 5.91921 54.4632 5.8611 54.6752 5.8611C55.0569 5.8611 55.3488 5.9871 55.5614 6.23851C55.7665 6.48819 55.8756 6.84315 55.8756 7.30397V9.45447H55.1837V7.30801ZM58.3999 9.47231C58.1142 9.47231 57.9022 9.39176 57.7708 9.23413C57.6411 9.07477 57.5697 8.84292 57.5697 8.53283V5.18915H58.2616V8.53743C58.2616 8.62488 58.2793 8.69276 58.313 8.73994C58.3553 8.78481 58.3999 8.80495 58.4627 8.80495H58.793V9.47231H58.3999ZM57.2103 5.91288H58.793V6.5394H57.2103V5.91288ZM63.9706 9.50394C63.7655 9.50394 63.5712 9.48382 63.3884 9.44297C63.205 9.4027 63.0336 9.34229 62.8793 9.25657C62.7187 9.17775 62.5759 9.07477 62.4399 8.95108L62.8502 8.44308C63.0376 8.58921 63.2278 8.6991 63.4152 8.77101C63.6049 8.84292 63.7877 8.88146 63.9706 8.88146C64.2454 8.88146 64.4505 8.83659 64.5888 8.75317C64.7253 8.66803 64.7945 8.53744 64.7945 8.36657C64.7945 8.25208 64.7539 8.16923 64.6785 8.11285C64.6048 8.05647 64.5134 8.0162 64.4059 7.99836C64.29 7.97996 64.1357 7.96212 63.9351 7.94429C63.9129 7.94429 63.8969 7.94429 63.8792 7.94429C63.8569 7.94429 63.8392 7.93739 63.8214 7.93739C63.81 7.93739 63.7992 7.93739 63.7923 7.93739C63.7809 7.93509 63.7763 7.93509 63.7655 7.93509C63.5358 7.91726 63.3415 7.88332 63.1872 7.83384C63.0267 7.78494 62.8947 7.69461 62.7947 7.55999C62.685 7.42709 62.6336 7.23436 62.6336 6.98008C62.6336 6.7327 62.685 6.52386 62.7879 6.3576C62.8839 6.18903 63.0376 6.06764 63.2387 5.98479C63.4398 5.90367 63.6963 5.8611 63.9929 5.8611C64.1763 5.8611 64.3545 5.87894 64.5196 5.91288C64.6848 5.94625 64.8436 5.99573 64.9927 6.06304C65.147 6.13093 65.2898 6.21607 65.435 6.31732L65.015 6.82705C64.839 6.71257 64.6671 6.62742 64.4951 6.57104C64.3231 6.51293 64.158 6.48589 63.9929 6.48589C63.7586 6.48589 63.5826 6.52616 63.4684 6.60727C63.3478 6.68552 63.2901 6.8069 63.2901 6.96914C63.2901 7.06579 63.3255 7.13771 63.3929 7.18488C63.4575 7.23206 63.5421 7.26312 63.6449 7.27923C63.7477 7.29707 63.8906 7.308 64.0803 7.31951C64.0911 7.32411 64.1071 7.32641 64.118 7.32641C64.1357 7.32641 64.1471 7.32641 64.1648 7.32871C64.1717 7.32871 64.1763 7.32871 64.1871 7.32871C64.1871 7.32871 64.2008 7.32872 64.2048 7.33275C64.4505 7.34655 64.6602 7.37992 64.8322 7.4294C65.0042 7.48117 65.1538 7.58012 65.2675 7.72855C65.3881 7.87468 65.4458 8.08582 65.4458 8.36657C65.4458 8.62316 65.3927 8.83429 65.2853 9.00285C65.1761 9.16911 65.011 9.29511 64.7945 9.37566C64.5756 9.46368 64.3008 9.50394 63.9706 9.50394ZM67.7986 9.47231C67.513 9.47231 67.3073 9.39176 67.1759 9.23413C67.0439 9.07477 66.9748 8.84292 66.9748 8.53283V5.18915H67.6667V8.53743C67.6667 8.62488 67.6844 8.69276 67.7181 8.73994C67.7535 8.78481 67.8049 8.80495 67.8655 8.80495H68.198V9.47231H67.7986ZM66.6154 5.91288H68.198V6.5394H66.6154V5.91288ZM71.0548 9.50394C70.7531 9.50394 70.4897 9.44297 70.2737 9.32388C70.0612 9.20249 69.8898 9.0276 69.7801 8.79575C69.6664 8.56678 69.6041 8.28833 69.6041 7.96213V7.38682C69.6041 7.0658 69.6664 6.79137 69.7801 6.5624C69.8898 6.33285 70.0612 6.15969 70.2737 6.04061C70.4897 5.91922 70.7531 5.8611 71.0548 5.8611C71.3627 5.8611 71.6261 5.91922 71.8381 6.04061C72.0547 6.15969 72.2221 6.33285 72.3403 6.5624C72.4495 6.79137 72.5077 7.0658 72.5077 7.38682V7.97363C72.5077 8.29465 72.4495 8.57138 72.3403 8.80035C72.2221 9.0276 72.0547 9.20249 71.8381 9.32388C71.6261 9.44297 71.3627 9.50394 71.0548 9.50394ZM71.0548 8.84292C71.3022 8.84292 71.4856 8.76698 71.6147 8.61395C71.7467 8.46092 71.8158 8.24747 71.8158 7.97363V7.38682C71.8158 7.11067 71.7467 6.89896 71.6147 6.7488C71.4856 6.59807 71.3022 6.52156 71.0548 6.52156C70.816 6.52156 70.6263 6.59807 70.4943 6.7488C70.3629 6.89896 70.3 7.11067 70.3 7.38682V7.97363C70.3 8.24747 70.3629 8.46092 70.4943 8.61395C70.6263 8.76698 70.816 8.84292 71.0548 8.84292ZM74.0498 5.91288H74.7395V9.45447H74.0498V5.91288ZM75.985 6.7511C75.9244 6.67689 75.8422 6.61821 75.7525 6.58024C75.6588 6.54169 75.5519 6.52156 75.4314 6.52156C75.2148 6.52156 75.0428 6.58253 74.9223 6.70623C74.7977 6.82704 74.7395 6.99562 74.7395 7.21136L74.6726 6.53076C74.7794 6.31732 74.9177 6.15337 75.0897 6.03601C75.2594 5.91922 75.4536 5.8611 75.6548 5.8611C75.8199 5.8611 75.9627 5.88354 76.0941 5.93072C76.2261 5.97789 76.3398 6.04521 76.4381 6.13726L75.985 6.7511ZM78.94 9.50394C78.6138 9.50394 78.3396 9.44297 78.1053 9.32158C77.8773 9.19846 77.7014 9.01609 77.5808 8.77791C77.4602 8.54204 77.402 8.25208 77.402 7.91955V7.51971C77.402 7.16877 77.4602 6.86789 77.5739 6.62051C77.6899 6.37313 77.8619 6.18443 78.083 6.05441C78.299 5.92611 78.5692 5.8611 78.8841 5.8611C79.1743 5.8611 79.4263 5.93532 79.6383 6.08144C79.8439 6.2293 80.0022 6.44504 80.1113 6.72406C80.221 7.00251 80.2702 7.33964 80.2702 7.73085V7.96213H77.8996V7.40236H79.6137C79.5983 7.11298 79.5223 6.88802 79.3908 6.73096C79.2657 6.56873 79.096 6.48819 78.8841 6.48819C78.6207 6.48819 78.4155 6.57563 78.2727 6.7488C78.1276 6.92197 78.0602 7.16648 78.0602 7.48117V7.93279C78.0602 8.22505 78.1339 8.44999 78.2881 8.60705C78.4418 8.76468 78.6584 8.84292 78.94 8.84292C79.0829 8.84292 79.2189 8.81415 79.3571 8.75777C79.4931 8.70139 79.6205 8.62085 79.7274 8.5196L80.185 8.97581C80.0091 9.14438 79.8148 9.27439 79.5983 9.36472C79.3794 9.45907 79.1629 9.50394 78.94 9.50394Z" fill="#050001"/>
</svg>
