<svg width="162" height="32" viewBox="0 0 162 32" fill="none" xmlns="http://www.w3.org/2000/svg">
<path d="M157.715 11.8902L162 20.1441H160.628L159.666 18.3102H153.86L152.904 20.1441H151.537L155.823 11.8902H157.715ZM87.0732 15.445C85.3815 15.445 84.2001 15.3341 83.527 15.1132C82.8539 14.891 82.4229 14.4726 82.2423 13.855C82.113 13.4283 82.0518 12.5488 82.0518 11.2153C82.0518 9.85719 82.113 8.97771 82.2291 8.57562C82.4117 7.94969 82.846 7.525 83.527 7.29948C84.208 7.07396 85.3914 6.96099 87.0732 6.96099C88.7632 6.96099 89.9446 7.07229 90.6127 7.29279C91.283 7.51329 91.7168 7.93672 91.9028 8.56432C92.0301 8.99109 92.0978 9.87351 92.0978 11.2153C92.0978 12.5655 92.035 13.4396 91.9189 13.8417C91.733 14.4676 91.3086 14.891 90.6289 15.1132C89.9562 15.3341 88.7711 15.445 87.0732 15.445ZM87.0732 14.3354C88.9438 14.3354 90.0479 14.1948 90.3822 13.9136C90.716 13.6308 90.8809 12.7287 90.8809 11.2086C90.8809 9.68063 90.716 8.77353 90.3855 8.49236C90.0594 8.21119 88.952 8.06894 87.0732 8.06894C85.1926 8.06894 84.0886 8.21119 83.7592 8.49236C83.432 8.77353 83.2671 9.68063 83.2671 11.2086C83.2671 12.7208 83.432 13.6195 83.7675 13.9086C84.0968 14.1931 85.2009 14.3354 87.0732 14.3354ZM120.547 0H121.765V16.0236C121.567 16.0203 121.368 16.0186 121.158 16.0186C120.948 16.0186 120.745 16.0203 120.547 16.0236V0ZM121.765 25.5884V31.9703H120.547V25.5884C120.745 25.5913 120.948 25.593 121.158 25.593C121.368 25.593 121.567 25.5913 121.765 25.5884ZM86.4645 0.104601H87.6785V6.48694C87.4864 6.48192 87.2831 6.48193 87.0732 6.48193C86.8649 6.48193 86.6583 6.48192 86.4645 6.48694V0.104601ZM87.6785 15.9764V32H86.4645V15.9764C86.6583 15.9797 86.8649 15.9814 87.0732 15.9814C87.2831 15.9814 87.4864 15.9797 87.6785 15.9764ZM4.76971 15.5287C6.66635 15.5287 7.85929 15.6412 8.35142 15.8667C8.96339 16.1479 9.26834 16.8228 9.26834 17.8918C9.26834 18.9035 8.90016 19.5654 8.16093 19.8792C7.55723 20.1357 6.33867 20.265 4.49699 20.265C2.50365 20.265 1.22352 20.0445 0.653701 19.6014C0.21487 19.2646 0 18.5291 0 17.3964H1.21071C1.21071 18.1763 1.38013 18.665 1.72392 18.8608C2.06606 19.0571 2.9929 19.1554 4.50856 19.1554C5.99157 19.1554 6.95518 19.0834 7.39277 18.9395C7.83491 18.7956 8.05309 18.4458 8.05309 17.8918C8.05309 17.3278 7.88821 16.9797 7.56219 16.8425C7.23121 16.7069 6.30148 16.6383 4.76971 16.6383C2.89579 16.6383 1.64004 16.4077 0.996257 15.95C0.505362 15.6052 0.261567 14.9827 0.261567 14.0835C0.261567 13.1111 0.553705 12.4835 1.1446 12.1977C1.73549 11.9116 2.94744 11.7693 4.76971 11.7693C6.58742 11.7693 7.77995 11.9902 8.35142 12.4312C8.80513 12.786 9.0295 13.4772 9.0295 14.5053H7.83987C7.83987 13.7927 7.66053 13.3433 7.30723 13.1571C6.94733 12.9705 6.10314 12.8777 4.76971 12.8777C3.62883 12.8777 2.92472 12.894 2.66522 12.9266C1.86772 13.0228 1.47558 13.4053 1.47558 14.0772C1.47558 14.6408 1.69004 15.0249 2.11606 15.2262C2.5458 15.4287 3.43007 15.5287 4.76971 15.5287ZM16.8384 11.8902H25.3464V12.9986H21.7068V20.1441H20.4912V12.9986H16.8384V11.8902ZM32.6392 11.8902H40.4369V12.9986H33.8544V15.409H40.2092V16.5174H33.8544V19.0357H40.4369V20.1441H32.6392V11.8902ZM66.1638 11.8902H73.957V12.9986H67.3779V15.409H73.7343V16.5174H67.3779V19.0357H73.957V20.1441H66.1638V11.8902ZM99.9038 12.9986V11.8902H108.283V13.0002L101.402 19.0357H108.283V20.1441H99.6294V19.0341L106.592 12.9986H99.9038ZM133.807 11.8902H135.579L142.566 19.1194V11.8902H143.781V20.1441H141.946L135.022 12.9739V20.1441H133.807V11.8902ZM48.635 11.8902H55.9418C56.6311 11.8902 57.1637 12.1291 57.5352 12.6078C57.9112 13.0869 58.0951 13.7241 58.0951 14.5199C58.0951 15.2032 57.9901 15.7132 57.7757 16.05C57.6223 16.2935 57.3831 16.4864 57.0492 16.6316C57.3414 16.7508 57.5736 16.9094 57.7385 17.1006C57.979 17.3772 58.0951 17.7153 58.0951 18.1157V20.1441H56.8831V18.1123C56.8831 17.8362 56.7505 17.6106 56.4939 17.4295C56.2389 17.2462 55.929 17.1563 55.5658 17.1563H49.8503V20.1441H48.635V11.8902ZM49.8503 16.0467H55.4447C55.8869 16.0467 56.2129 15.9713 56.4211 15.8178C56.7265 15.5839 56.8831 15.1509 56.8831 14.5232C56.8831 13.894 56.7294 13.4659 56.4294 13.2404C56.2178 13.0785 55.8869 12.9986 55.4447 12.9986H49.8503V16.0467ZM121.158 25.0846C119.468 25.0846 118.287 24.9737 117.614 24.7528C116.934 24.5323 116.505 24.1139 116.329 23.4947C116.2 23.0679 116.134 22.1888 116.134 20.855C116.134 19.4968 116.196 18.619 116.311 18.2169C116.497 17.5893 116.926 17.1646 117.614 16.9391C118.29 16.7136 119.476 16.6023 121.158 16.6023C122.845 16.6023 124.027 16.7119 124.695 16.9324C125.368 17.1529 125.799 17.578 125.988 18.2039C126.117 18.6307 126.178 19.5131 126.178 20.855C126.178 22.2052 126.12 23.0792 126.001 23.4813C125.82 24.1089 125.389 24.5323 124.716 24.7528C124.043 24.9737 122.856 25.0846 121.158 25.0846ZM121.158 23.9767C123.031 23.9767 124.133 23.8361 124.464 23.5549C124.798 23.2704 124.964 22.37 124.964 20.8483C124.964 19.3203 124.798 18.4148 124.472 18.132C124.143 17.8508 123.039 17.7102 121.158 17.7102C119.278 17.7102 118.171 17.8508 117.84 18.132C117.514 18.4148 117.349 19.3203 117.349 20.8483C117.349 22.3621 117.519 23.2625 117.849 23.5486C118.182 23.8327 119.286 23.9767 121.158 23.9767ZM159.145 17.2035L156.929 12.8777H156.62L154.411 17.2035H159.145Z" fill="white"/>
<path d="M1.86836 5.23973C1.86836 5.07112 1.82332 4.94058 1.73613 4.84727C1.64564 4.75397 1.51796 4.70669 1.3568 4.70669C1.25185 4.70669 1.15805 4.72301 1.0597 4.75397C0.959704 4.78535 0.872518 4.82928 0.79814 4.88493L0.434928 4.63179C0.53038 4.51547 0.657648 4.42385 0.814256 4.35858C0.972516 4.29331 1.14524 4.26067 1.34069 4.26067C1.55019 4.26067 1.73283 4.29833 1.88117 4.37322C2.03447 4.44854 2.14934 4.55648 2.22331 4.70041C2.30265 4.84392 2.34438 5.01714 2.34438 5.2184V6.87402H1.86836V5.23973ZM1.24358 6.91001C0.930369 6.91001 0.694835 6.84474 0.543186 6.71378C0.386579 6.58156 0.310547 6.38199 0.310547 6.11379C0.310547 5.85898 0.381623 5.66777 0.522115 5.54183C0.665912 5.41296 0.880372 5.34894 1.16631 5.34894H1.88943L1.92662 5.75772H1.17085C1.03863 5.75772 0.943588 5.78534 0.877061 5.846C0.810947 5.90333 0.782024 5.99287 0.782024 6.11379C0.782024 6.24475 0.82417 6.34265 0.910944 6.40165C0.991934 6.46692 1.12416 6.49788 1.30349 6.49788C1.48903 6.49788 1.63283 6.47696 1.72787 6.43596C1.82001 6.39495 1.86836 6.32968 1.86836 6.24307L1.92331 6.60583C1.87621 6.67445 1.82001 6.7301 1.75679 6.77738C1.69067 6.82173 1.61671 6.85436 1.52953 6.87737C1.44688 6.89996 1.35184 6.91001 1.24358 6.91001ZM5.04182 4.29832H5.53891V6.87402H5.04182V4.29832ZM4.00549 5.86399C4.00549 6.04391 4.05383 6.18282 4.14102 6.2824C4.23317 6.38031 4.36044 6.42926 4.52531 6.42926C4.69142 6.42926 4.81414 6.38533 4.90587 6.29705C4.99637 6.21044 5.04182 6.0845 5.04182 5.92258L5.07571 6.46231C5.0224 6.58951 4.93852 6.69579 4.8191 6.7824C4.70258 6.86733 4.55919 6.91001 4.38481 6.91001C4.10383 6.91001 3.88938 6.81671 3.73732 6.63679C3.58401 6.45395 3.50509 6.19412 3.50509 5.86399V4.29832H4.00549V5.86399ZM8.64916 3.77197V6.87402H8.14876V3.77197H8.64916ZM7.50787 6.91796C7.32399 6.91796 7.16243 6.87738 7.02854 6.79537C6.90128 6.71378 6.80251 6.59286 6.73144 6.43596C6.66202 6.27905 6.62814 6.09119 6.62814 5.87028V5.30333C6.62814 5.08116 6.66203 4.89162 6.72855 4.73472C6.79921 4.57782 6.89301 4.4569 7.02069 4.3749C7.14962 4.29331 7.30291 4.2523 7.4839 4.2523C7.63224 4.2523 7.77273 4.29331 7.89711 4.37155C8.02149 4.45188 8.1248 4.56276 8.19876 4.70669L8.14876 5.23304C8.14876 5.12342 8.12934 5.03054 8.08761 4.95188C8.05042 4.87531 7.99215 4.81631 7.91819 4.77531C7.84381 4.73472 7.75332 4.71505 7.64836 4.71505C7.4839 4.71505 7.35622 4.76736 7.26407 4.87196C7.17399 4.97488 7.12854 5.12174 7.12854 5.31002V5.87028C7.12854 6.05689 7.17399 6.20206 7.26407 6.30374C7.35622 6.40666 7.4839 6.45729 7.64836 6.45729C7.75332 6.45729 7.84381 6.43596 7.91819 6.39328C7.99215 6.35102 8.05042 6.29035 8.08761 6.21211C8.12934 6.13052 8.14876 6.03554 8.14876 5.92592L8.18264 6.46859C8.13265 6.59621 8.05042 6.70248 7.93431 6.78909C7.81943 6.87402 7.6744 6.91796 7.50787 6.91796ZM9.80987 4.29832H10.3103V6.87402H9.80987V4.29832ZM12.4519 6.91001C12.2325 6.91001 12.042 6.86566 11.8838 6.77905C11.7272 6.69077 11.6078 6.56357 11.5305 6.39496C11.4433 6.22843 11.4011 6.02592 11.4011 5.78868V5.37028C11.4011 5.13681 11.4433 4.93723 11.5305 4.7707C11.6078 4.60376 11.7272 4.47782 11.8838 4.39122C12.042 4.30293 12.2325 4.26067 12.4519 4.26067C12.6701 4.26067 12.8602 4.30293 13.0168 4.39122C13.1734 4.47782 13.2928 4.60376 13.3767 4.7707C13.4594 4.93723 13.5011 5.13681 13.5011 5.37028V5.79705C13.5011 6.03052 13.4594 6.23178 13.3767 6.3983C13.2928 6.56357 13.1734 6.69077 13.0168 6.77905C12.8602 6.86566 12.6701 6.91001 12.4519 6.91001ZM12.4519 6.42926C12.628 6.42926 12.7602 6.37403 12.8556 6.26274C12.9507 6.15144 13.0007 5.99621 13.0007 5.79705V5.37028C13.0007 5.16945 12.9507 5.01547 12.8556 4.90627C12.7602 4.79664 12.628 4.741 12.4519 4.741C12.2776 4.741 12.1404 4.79664 12.047 4.90627C11.9515 5.01547 11.9049 5.16945 11.9049 5.37028V5.79705C11.9049 5.99621 11.9515 6.15144 12.047 6.26274C12.1404 6.37403 12.2776 6.42926 12.4519 6.42926ZM17.4088 6.91001C17.175 6.91001 16.9717 6.86566 16.8068 6.77738C16.6407 6.68784 16.513 6.5552 16.4258 6.38198C16.3386 6.21044 16.2952 5.99956 16.2952 5.75772V5.46693C16.2952 5.2117 16.3357 4.99288 16.4179 4.81297C16.5035 4.63305 16.6246 4.49581 16.7907 4.40125C16.9473 4.30795 17.1411 4.26067 17.3638 4.26067C17.5799 4.26067 17.7609 4.31464 17.9092 4.42092C18.058 4.52845 18.1741 4.68535 18.253 4.88827C18.3307 5.09078 18.3724 5.33597 18.3724 5.62048V5.78868H16.6568V5.38158H17.8964C17.8803 5.17112 17.832 5.00752 17.7365 4.89329C17.6448 4.7753 17.5204 4.71673 17.3638 4.71673C17.175 4.71673 17.0295 4.78033 16.9262 4.90627C16.8229 5.03221 16.7679 5.21003 16.7679 5.4389V5.76735C16.7679 5.9799 16.8279 6.14349 16.9345 6.25772C17.0456 6.37236 17.2072 6.42926 17.4088 6.42926C17.5088 6.42926 17.6121 6.40834 17.7125 6.36734C17.8109 6.32633 17.9014 6.26776 17.9803 6.19412L18.3063 6.52591C18.182 6.6485 18.0369 6.74306 17.8803 6.80875C17.7287 6.87737 17.5671 6.91001 17.4088 6.91001ZM20.9067 4.29832H21.4104V7.35938H20.9067V4.29832ZM20.2691 6.91796C20.0835 6.91796 19.922 6.87738 19.7947 6.79537C19.6621 6.71378 19.5621 6.59286 19.4927 6.43596C19.4216 6.27905 19.3894 6.09119 19.3894 5.87028V5.30333C19.3894 5.08116 19.4216 4.89162 19.4881 4.73472C19.5542 4.57782 19.6542 4.4569 19.7815 4.3749C19.9092 4.29331 20.0625 4.2523 20.2451 4.2523C20.3984 4.2523 20.5339 4.29331 20.6583 4.37155C20.7823 4.45188 20.8839 4.56276 20.9583 4.70669L20.9067 5.23304C20.9067 5.12342 20.8889 5.03054 20.8472 4.95188C20.81 4.87531 20.7517 4.81631 20.679 4.77531C20.6034 4.73472 20.5178 4.71505 20.4096 4.71505C20.2402 4.71505 20.1158 4.76736 20.0253 4.87196C19.9352 4.97488 19.8898 5.12174 19.8898 5.31002V5.87028C19.8898 6.05689 19.9352 6.20206 20.0253 6.30374C20.1158 6.40666 20.2402 6.45729 20.4096 6.45729C20.5178 6.45729 20.6034 6.43596 20.679 6.39328C20.7517 6.35102 20.81 6.29035 20.8472 6.21211C20.8889 6.13052 20.9067 6.03554 20.9067 5.92592L20.9422 6.46859C20.8939 6.59621 20.81 6.70248 20.6951 6.78909C20.579 6.87402 20.4385 6.91796 20.2691 6.91796ZM24.1074 4.29832H24.6028V6.87402H24.1074V4.29832ZM23.0711 5.86399C23.0711 6.04391 23.1198 6.18282 23.207 6.2824C23.2971 6.38031 23.4248 6.42926 23.5909 6.42926C23.7574 6.42926 23.8814 6.38533 23.9719 6.29705C24.0624 6.21044 24.1074 6.0845 24.1074 5.92258L24.1413 6.46231C24.0863 6.58951 24.0041 6.69579 23.8847 6.7824C23.7686 6.86733 23.6248 6.91001 23.4504 6.91001C23.1698 6.91001 22.955 6.81671 22.8017 6.63679C22.6484 6.45395 22.5756 6.19412 22.5756 5.86399V4.29832H23.0711V5.86399ZM25.7685 4.29832H26.264V6.87402H25.7685V4.29832ZM27.4309 4.29832H27.9296V7.35938H27.4309V4.29832ZM28.5738 6.91001C28.4139 6.91001 28.2767 6.87236 28.1573 6.79537C28.0362 6.7188 27.9556 6.60918 27.8974 6.46859L27.9296 5.93094C27.9296 6.04224 27.9507 6.13512 27.9928 6.21378C28.028 6.29035 28.0879 6.35101 28.1606 6.39202C28.2362 6.4326 28.3267 6.45395 28.43 6.45395C28.5949 6.45395 28.7238 6.40164 28.8143 6.30206C28.9048 6.19914 28.9498 6.05689 28.9498 5.87028V5.31296C28.9498 5.12342 28.9048 4.97823 28.8143 4.87363C28.7238 4.76903 28.5949 4.71673 28.43 4.71673C28.3267 4.71673 28.2362 4.73765 28.1606 4.77698C28.0879 4.81631 28.028 4.87531 27.9928 4.95188C27.9507 5.02886 27.9296 5.12008 27.9296 5.22802L27.8796 4.73305C27.9589 4.58075 28.0573 4.46485 28.1817 4.38326C28.3056 4.30125 28.4412 4.26067 28.5949 4.26067C28.7771 4.26067 28.9288 4.30125 29.0581 4.38326C29.1854 4.46485 29.2854 4.5841 29.3519 4.741C29.418 4.8979 29.4502 5.08911 29.4502 5.31002V5.87028C29.4502 6.08952 29.418 6.27738 29.3469 6.43261C29.2808 6.58784 29.1775 6.70583 29.0449 6.78741C28.9126 6.869 28.756 6.91001 28.5738 6.91001ZM33.6034 5.31296C33.6034 5.13012 33.558 4.98785 33.4629 4.88995C33.3724 4.79162 33.2435 4.741 33.0737 4.741C32.9175 4.741 32.7976 4.78995 32.7109 4.88493C32.6282 4.98116 32.5882 5.11881 32.5882 5.29203L32.4832 4.79665C32.5671 4.62677 32.6687 4.49414 32.801 4.40125C32.9336 4.30627 33.0786 4.26067 33.2352 4.26067C33.4208 4.26067 33.5741 4.30125 33.7067 4.38326C33.834 4.46485 33.9373 4.5841 34.0051 4.741C34.0699 4.8979 34.1084 5.08911 34.1084 5.31002V6.87402H33.6034V5.31296ZM30.5655 4.29832H31.0659V6.87402H30.5655V4.29832ZM32.0878 5.31296C32.0878 5.13012 32.0407 4.98785 31.9551 4.88995C31.8634 4.79162 31.739 4.741 31.5791 4.741C31.413 4.741 31.2903 4.78535 31.1981 4.87363C31.1109 4.96024 31.0659 5.08451 31.0659 5.24267L31.0159 4.74769C31.0948 4.59079 31.1952 4.47154 31.3225 4.38661C31.4502 4.30292 31.5907 4.26067 31.744 4.26067C31.9212 4.26067 32.0745 4.30125 32.1989 4.38326C32.3233 4.46485 32.4216 4.5841 32.4878 4.741C32.5493 4.8979 32.5882 5.08911 32.5882 5.31002V6.87402H32.0878V5.31296ZM36.31 6.91001C36.0744 6.91001 35.8711 6.86566 35.7067 6.77738C35.5418 6.68784 35.4141 6.5552 35.3257 6.38198C35.2401 6.21044 35.1947 5.99956 35.1947 5.75772V5.46693C35.1947 5.2117 35.2352 4.99288 35.3224 4.81297C35.4063 4.63305 35.529 4.49581 35.6901 4.40125C35.8467 4.30795 36.0422 4.26067 36.2633 4.26067C36.4798 4.26067 36.6604 4.31464 36.8104 4.42092C36.9624 4.52845 37.0752 4.68535 37.1529 4.88827C37.2351 5.09078 37.2723 5.33597 37.2723 5.62048V5.78868H35.5579V5.38158H36.7975C36.7847 5.17112 36.7314 5.00752 36.6364 4.89329C36.5459 4.7753 36.4215 4.71673 36.2633 4.71673C36.0794 4.71673 35.9306 4.78033 35.8261 4.90627C35.7228 5.03221 35.6695 5.21003 35.6695 5.4389V5.76735C35.6695 5.9799 35.7273 6.14349 35.8389 6.25772C35.95 6.37236 36.1067 6.42926 36.31 6.42926C36.4087 6.42926 36.512 6.40834 36.612 6.36734C36.7104 6.32633 36.8025 6.26776 36.8798 6.19412L37.2075 6.52591C37.0835 6.6485 36.943 6.74306 36.7847 6.80875C36.6281 6.87737 36.4666 6.91001 36.31 6.91001ZM38.3632 4.29832H38.8636V6.87402H38.3632V4.29832ZM39.9094 5.31296C39.9094 5.13012 39.8627 4.98785 39.7644 4.88995C39.6739 4.79162 39.545 4.741 39.3768 4.741C39.214 4.741 39.0863 4.78535 39.0008 4.87363C38.9091 4.96024 38.8636 5.08451 38.8636 5.24267L38.8136 4.74769C38.8925 4.59079 38.9929 4.47154 39.1202 4.38661C39.2479 4.30292 39.3884 4.26067 39.5417 4.26067C39.8177 4.26067 40.0289 4.3523 40.1826 4.53514C40.3309 4.71673 40.4098 4.97488 40.4098 5.31002V6.87402H39.9094V5.31296ZM42.2354 6.887C42.0288 6.887 41.8755 6.82842 41.7805 6.71378C41.6867 6.59788 41.635 6.42926 41.635 6.20374V3.77197H42.1354V6.20709C42.1354 6.27069 42.1482 6.32005 42.1726 6.35436C42.2032 6.387 42.2354 6.40165 42.2809 6.40165H42.5197V6.887H42.2354ZM41.3751 4.29832H42.5197V4.75397H41.3751V4.29832ZM46.2642 6.91001C46.1159 6.91001 45.9754 6.89537 45.8432 6.86566C45.7105 6.83637 45.5866 6.79244 45.475 6.7301C45.3589 6.67277 45.2556 6.59788 45.1572 6.50792L45.4539 6.13847C45.5894 6.24475 45.727 6.32466 45.8626 6.37696C45.9998 6.42926 46.132 6.45729 46.2642 6.45729C46.463 6.45729 46.6113 6.42466 46.7113 6.36399C46.8101 6.30207 46.8601 6.20709 46.8601 6.08282C46.8601 5.99956 46.8307 5.93931 46.7762 5.8983C46.7229 5.8573 46.6568 5.82801 46.5791 5.81504C46.4952 5.80165 46.3836 5.78868 46.2386 5.77571C46.2225 5.77571 46.2109 5.77571 46.1981 5.77571C46.182 5.77571 46.1692 5.77069 46.1564 5.77069C46.1481 5.77069 46.1403 5.77069 46.1353 5.77069C46.127 5.76902 46.1237 5.76902 46.1159 5.76902C45.9498 5.75605 45.8093 5.73137 45.6977 5.69538C45.5816 5.65982 45.4861 5.59412 45.4138 5.49622C45.3345 5.39957 45.2973 5.2594 45.2973 5.07447C45.2973 4.89455 45.3345 4.74267 45.4089 4.62175C45.4783 4.49916 45.5894 4.41087 45.7349 4.35062C45.8803 4.29163 46.0659 4.26067 46.2803 4.26067C46.413 4.26067 46.5419 4.27364 46.6613 4.29832C46.7807 4.32259 46.8956 4.35858 47.0035 4.40753C47.115 4.45691 47.2183 4.51882 47.3233 4.59246L47.0196 4.96318C46.8923 4.87991 46.7679 4.81799 46.6436 4.77698C46.5192 4.73472 46.3998 4.71505 46.2803 4.71505C46.1109 4.71505 45.9837 4.74434 45.901 4.80334C45.8138 4.86024 45.7721 4.94852 45.7721 5.06651C45.7721 5.13681 45.7977 5.18911 45.8465 5.22341C45.8932 5.25772 45.9543 5.28032 46.0287 5.29203C46.1031 5.305 46.2064 5.31296 46.3436 5.32133C46.3514 5.32467 46.363 5.32634 46.3708 5.32634C46.3836 5.32634 46.3919 5.32634 46.4047 5.32802C46.4097 5.32802 46.413 5.32802 46.4208 5.32802C46.4208 5.32802 46.4307 5.32802 46.4336 5.33095C46.6113 5.34099 46.763 5.36526 46.8873 5.40124C47.0117 5.4389 47.12 5.51086 47.2022 5.61881C47.2894 5.72509 47.3311 5.87864 47.3311 6.08282C47.3311 6.26943 47.2927 6.42298 47.215 6.54557C47.1361 6.66649 47.0167 6.75813 46.8601 6.81671C46.7018 6.88072 46.5031 6.91001 46.2642 6.91001ZM49.0327 6.887C48.8261 6.887 48.6774 6.82842 48.5823 6.71378C48.4869 6.59788 48.4369 6.42926 48.4369 6.20374V3.77197H48.9373V6.20709C48.9373 6.27069 48.9501 6.32005 48.9745 6.35436C49.0001 6.387 49.0373 6.40165 49.0811 6.40165H49.3216V6.887H49.0327ZM48.177 4.29832H49.3216V4.75397H48.177V4.29832ZM51.3876 6.91001C51.1695 6.91001 50.979 6.86566 50.8228 6.77905C50.6691 6.69077 50.5451 6.56357 50.4658 6.39496C50.3835 6.22843 50.3385 6.02592 50.3385 5.78868V5.37028C50.3385 5.13681 50.3835 4.93723 50.4658 4.7707C50.5451 4.60376 50.6691 4.47782 50.8228 4.39122C50.979 4.30293 51.1695 4.26067 51.3876 4.26067C51.6103 4.26067 51.8008 4.30293 51.9541 4.39122C52.1107 4.47782 52.2318 4.60376 52.3174 4.7707C52.3963 4.93723 52.4384 5.13681 52.4384 5.37028V5.79705C52.4384 6.03052 52.3963 6.23178 52.3174 6.3983C52.2318 6.56357 52.1107 6.69077 51.9541 6.77905C51.8008 6.86566 51.6103 6.91001 51.3876 6.91001ZM51.3876 6.42926C51.5665 6.42926 51.6992 6.37403 51.7926 6.26274C51.888 6.15144 51.938 5.99621 51.938 5.79705V5.37028C51.938 5.16945 51.888 5.01547 51.7926 4.90627C51.6992 4.79664 51.5665 4.741 51.3876 4.741C51.2149 4.741 51.0777 4.79664 50.9823 4.90627C50.8872 5.01547 50.8418 5.16945 50.8418 5.37028V5.79705C50.8418 5.99621 50.8872 6.15144 50.9823 6.26274C51.0777 6.37403 51.2149 6.42926 51.3876 6.42926ZM53.5537 4.29832H54.0524V6.87402H53.5537V4.29832ZM54.9532 4.90794C54.9094 4.85396 54.8499 4.81129 54.7851 4.78367C54.7173 4.75564 54.64 4.741 54.5528 4.741C54.3962 4.741 54.2719 4.78534 54.1847 4.8753C54.0946 4.96317 54.0524 5.08577 54.0524 5.24267L54.0041 4.74769C54.0814 4.59246 54.1814 4.47322 54.3057 4.38787C54.4285 4.30293 54.5689 4.26067 54.7144 4.26067C54.8338 4.26067 54.9371 4.27699 55.0322 4.3113C55.1276 4.34561 55.2098 4.39456 55.2809 4.46151L54.9532 4.90794ZM57.0904 6.91001C56.8544 6.91001 56.6561 6.86566 56.4867 6.77738C56.3218 6.68784 56.1945 6.5552 56.1073 6.38198C56.0201 6.21044 55.978 5.99956 55.978 5.75772V5.46693C55.978 5.2117 56.0201 4.99288 56.1024 4.81297C56.1863 4.63305 56.3106 4.49581 56.4705 4.40125C56.6267 4.30795 56.8222 4.26067 57.0499 4.26067C57.2598 4.26067 57.442 4.31464 57.5953 4.42092C57.7441 4.52845 57.8585 4.68535 57.9375 4.88827C58.0168 5.09078 58.0523 5.33597 58.0523 5.62048V5.78868H56.3379V5.38158H57.5775C57.5664 5.17112 57.5114 5.00752 57.4164 4.89329C57.3259 4.7753 57.2032 4.71673 57.0499 4.71673C56.8594 4.71673 56.711 4.78033 56.6077 4.90627C56.5028 5.03221 56.454 5.21003 56.454 5.4389V5.76735C56.454 5.9799 56.5073 6.14349 56.6189 6.25772C56.73 6.37236 56.8866 6.42926 57.0904 6.42926C57.1937 6.42926 57.292 6.40834 57.392 6.36734C57.4904 6.32633 57.5825 6.26776 57.6598 6.19412L57.9908 6.52591C57.8635 6.6485 57.723 6.74306 57.5664 6.80875C57.4081 6.87737 57.2515 6.91001 57.0904 6.91001Z" fill="white"/>
</svg>
