<svg width="224" height="44" fill="none" xmlns="http://www.w3.org/2000/svg"><path d="M218.074 16.35L224 27.697h-1.897l-1.33-2.521h-8.028l-1.322 2.521h-1.89l5.926-11.349h2.615zm-97.677 4.887c-2.339 0-3.972-.152-4.903-.456-.931-.306-1.527-.88-1.776-1.73-.179-.587-.264-1.796-.264-3.63 0-1.867.085-3.076.245-3.63.253-.86.854-1.444 1.795-1.754.942-.31 2.578-.465 4.903-.465 2.337 0 3.971.153 4.895.456.926.303 1.526.885 1.783 1.748.176.587.27 1.8.27 3.645 0 1.857-.087 3.059-.247 3.611-.257.861-.844 1.443-1.784 1.749-.93.304-2.569.456-4.917.456zm0-1.526c2.587 0 4.114-.193 4.576-.58.462-.388.69-1.629.69-3.719 0-2.1-.228-3.348-.686-3.735-.45-.386-1.982-.582-4.58-.582-2.6 0-4.126.196-4.582.582-.452.387-.68 1.634-.68 3.735 0 2.08.228 3.315.692 3.713.455.39 1.982.586 4.57.586zM166.682.001h1.685v22.032a48.677 48.677 0 00-1.685 0V0zm1.685 35.183v8.775h-1.685v-8.775a56.379 56.379 0 001.685 0zM119.556.144h1.679V8.92c-.266-.007-.547-.007-.838-.007-.287 0-.573 0-.841.007V.144zm1.679 21.824V44h-1.679V21.968a49.564 49.564 0 001.679 0zm-114.64-.616c2.623 0 4.272.155 4.953.465.846.387 1.268 1.315 1.268 2.785 0 1.39-.51 2.3-1.532 2.732-.835.353-2.52.53-5.066.53-2.756 0-4.526-.303-5.314-.912C.297 26.49 0 25.478 0 23.92h1.674c0 1.073.234 1.745.71 2.014.473.27 1.754.405 3.85.405 2.05 0 3.383-.099 3.988-.297.612-.198.913-.679.913-1.44 0-.776-.228-1.255-.679-1.443-.457-.187-1.743-.281-3.86-.281-2.592 0-4.328-.317-5.218-.947-.68-.474-1.016-1.33-1.016-2.566 0-1.337.404-2.2 1.22-2.593.818-.393 2.493-.589 5.013-.589 2.514 0 4.163.304 4.953.91.627.488.937 1.438.937 2.852H10.84c0-.98-.248-1.598-.736-1.854-.498-.256-1.665-.384-3.509-.384-1.577 0-2.55.023-2.91.067-1.102.133-1.645.659-1.645 1.582 0 .775.297 1.303.886 1.58.594.279 1.817.416 3.67.416zm16.688-5.003h11.764v1.524h-5.033v9.825h-1.68v-9.825h-5.051V16.35zm21.848 0h10.782v1.524H46.81v3.315h8.787v1.524H46.81v3.462h9.102v1.524H45.13V16.35zm46.355 0h10.776v1.524h-9.097v3.315h8.789v1.524h-8.79v3.462h9.098v1.524H91.486V16.35zm46.653 1.524V16.35h11.585v1.527l-9.514 8.298h9.514v1.524h-11.965v-1.526l9.628-8.299h-9.248zm46.878-1.524h2.45l9.662 9.94v-9.94h1.68V27.7h-2.537l-9.575-9.86v9.86h-1.68V16.35zm-117.769 0h10.104c.953 0 1.69.329 2.203.987.52.659.774 1.535.774 2.63 0 .939-.145 1.64-.442 2.103-.212.335-.543.6-1.004.8.404.164.725.382.953.645.332.38.493.845.493 1.395v2.79h-1.676v-2.794c0-.38-.183-.69-.538-.94-.352-.251-.781-.375-1.283-.375h-7.903v4.108h-1.68V16.35zm1.68 5.715h7.736c.612 0 1.063-.103 1.35-.314.423-.322.64-.917.64-1.78 0-.866-.213-1.454-.628-1.764-.293-.223-.75-.333-1.362-.333H68.93v4.191zm98.599 12.428c-2.336 0-3.97-.153-4.901-.457-.939-.303-1.533-.878-1.776-1.73-.179-.586-.27-1.795-.27-3.63 0-1.867.087-3.074.245-3.627.257-.862.851-1.446 1.801-1.756.936-.31 2.576-.464 4.901-.464 2.333 0 3.967.151 4.891.454.93.303 1.526.888 1.787 1.749.179.587.264 1.8.264 3.645 0 1.856-.081 3.058-.246 3.611-.25.863-.846 1.445-1.776 1.748-.931.304-2.571.457-4.92.457zm0-1.524c2.59 0 4.114-.193 4.571-.58.462-.39.692-1.629.692-3.721 0-2.101-.23-3.346-.68-3.735-.456-.387-1.982-.58-4.583-.58-2.599 0-4.131.193-4.588.58-.451.389-.678 1.634-.678 3.735 0 2.081.234 3.32.691 3.713.46.39 1.987.588 4.575.588zm52.525-9.313l-3.064-5.948h-.426l-3.056 5.948h6.546zM2.584 7.207c0-.232-.063-.411-.183-.54-.125-.128-.302-.193-.525-.193-.145 0-.274.023-.41.065a1.2 1.2 0 00-.362.18l-.502-.348c.132-.16.308-.286.524-.375.219-.09.458-.135.728-.135.29 0 .542.052.747.155.212.103.371.252.473.45.11.197.168.435.168.712v2.276h-.658V7.207zM1.72 9.504c-.433 0-.759-.09-.969-.27C.535 9.052.43 8.778.43 8.41c0-.35.098-.613.292-.786.2-.178.496-.266.891-.266h1l.051.563H1.62c-.183 0-.314.038-.406.12-.091.08-.131.203-.131.37 0 .18.058.314.178.395.112.09.295.132.543.132.256 0 .455-.028.586-.085.128-.056.195-.146.195-.265l.076.499a1 1 0 01-.23.236 1.023 1.023 0 01-.315.137 1.515 1.515 0 01-.395.045zm5.252-3.591h.687v3.541h-.687V5.913zM5.539 8.066c0 .247.067.438.187.575.128.135.304.202.532.202.23 0 .399-.06.526-.182.125-.119.188-.292.188-.515l.047.742a.992.992 0 01-.955.616c-.39 0-.686-.128-.896-.376-.212-.251-.321-.608-.321-1.062V5.913h.692v2.153zm6.42-2.877v4.265h-.691V5.19h.692zm-1.577 4.326c-.255 0-.478-.056-.663-.169a1.115 1.115 0 01-.411-.494 1.903 1.903 0 01-.143-.778v-.78c0-.305.047-.565.139-.781a1.1 1.1 0 01.404-.495c.178-.112.39-.168.64-.168.205 0 .4.056.572.164.172.11.315.262.417.46l-.07.724a.807.807 0 00-.084-.386.551.551 0 00-.234-.243.774.774 0 00-.373-.083c-.228 0-.404.072-.532.216-.124.141-.187.343-.187.602v.77c0 .257.063.457.187.596.128.142.304.211.532.211a.74.74 0 00.373-.088.563.563 0 00.234-.249.847.847 0 00.085-.393l.047.746a.995.995 0 01-.344.44.978.978 0 01-.59.178zm3.183-3.602h.692v3.541h-.692V5.913zm3.653 3.59c-.304 0-.567-.06-.786-.18a1.138 1.138 0 01-.488-.527c-.12-.23-.18-.508-.18-.834v-.575c0-.321.06-.596.18-.825.106-.23.272-.402.488-.521a1.6 1.6 0 01.786-.18c.302 0 .564.058.78.18.217.119.383.292.498.521.115.23.173.504.173.825v.587c0 .32-.058.597-.172.826a1.22 1.22 0 01-.498.524 1.61 1.61 0 01-.781.18zm0-.66c.243 0 .426-.076.558-.229.131-.153.2-.367.2-.64v-.587c0-.276-.069-.488-.2-.638-.132-.15-.315-.227-.558-.227-.241 0-.431.076-.56.227-.132.15-.197.362-.197.638v.587c0 .273.065.487.197.64.129.153.319.229.56.229zm6.854.66c-.324 0-.605-.06-.833-.181a1.236 1.236 0 01-.527-.544 1.887 1.887 0 01-.18-.858v-.4c0-.351.056-.652.17-.9a1.24 1.24 0 01.515-.566 1.54 1.54 0 01.793-.193c.298 0 .549.074.754.22a1.4 1.4 0 01.475.643 2.8 2.8 0 01.165 1.007v.231h-2.372v-.56h1.714c-.022-.289-.09-.514-.221-.671a.62.62 0 00-.515-.243c-.262 0-.463.088-.606.26-.142.174-.218.418-.218.733v.452c0 .292.082.517.23.674.154.158.377.236.656.236.138 0 .28-.029.42-.085.136-.057.26-.137.37-.238l.45.456a1.865 1.865 0 01-.588.389 1.59 1.59 0 01-.652.139zm4.836-3.59h.697v4.209h-.697v-4.21zm-.881 3.602a1.2 1.2 0 01-.656-.169 1.07 1.07 0 01-.418-.494c-.098-.216-.143-.474-.143-.778v-.78c0-.305.045-.565.137-.781a1.07 1.07 0 01.405-.495c.177-.112.389-.168.642-.168.212 0 .399.056.57.164.172.11.313.262.416.46l-.072.724a.807.807 0 00-.082-.386.557.557 0 00-.233-.243.765.765 0 00-.372-.083c-.234 0-.406.072-.531.216-.125.141-.188.343-.188.602v.77c0 .257.063.457.188.596.125.142.297.211.53.211a.73.73 0 00.373-.088.569.569 0 00.233-.249.847.847 0 00.082-.393l.05.746a.986.986 0 01-.342.44.97.97 0 01-.59.178zm5.307-3.602h.685v3.541h-.685V5.913zm-1.433 2.153c0 .247.067.438.188.575.125.135.301.202.53.202.231 0 .403-.06.528-.182.125-.119.187-.292.187-.515l.047.742a.991.991 0 01-.955.616c-.388 0-.686-.128-.898-.376-.211-.251-.312-.608-.312-1.062V5.913h.685v2.153zm3.73-2.153h.685v3.541h-.685V5.913zm2.298 0h.69v4.209h-.69v-4.21zm1.58 3.59c-.22 0-.41-.05-.575-.157a.922.922 0 01-.36-.449l.045-.74c0 .154.03.281.087.39a.545.545 0 00.232.245c.105.056.23.085.373.085.228 0 .406-.072.531-.209.125-.141.188-.337.188-.594v-.766c0-.26-.063-.46-.188-.604-.125-.144-.303-.216-.531-.216a.804.804 0 00-.373.083.524.524 0 00-.232.24.773.773 0 00-.087.38l-.07-.68c.11-.21.247-.37.419-.481a1.01 1.01 0 01.57-.169c.253 0 .463.056.641.169.176.112.315.276.407.492.091.215.136.478.136.782v.77c0 .302-.045.56-.143.774a1.039 1.039 0 01-.418.487 1.22 1.22 0 01-.651.169zm6.955-2.195c0-.251-.063-.447-.194-.582-.125-.135-.303-.204-.538-.204-.216 0-.382.067-.502.197-.114.133-.17.322-.17.56l-.145-.68a1.39 1.39 0 01.44-.545c.183-.13.384-.193.6-.193.257 0 .469.056.652.169.176.112.319.276.413.492.09.215.142.478.142.782v2.15h-.698V7.308zm-4.2-1.395h.692v3.541h-.692V5.913zm2.104 1.395c0-.251-.065-.447-.183-.582-.127-.135-.299-.204-.52-.204-.23 0-.4.06-.527.182-.12.119-.182.29-.182.507l-.07-.68c.11-.216.248-.38.424-.497.177-.115.371-.173.583-.173.245 0 .457.056.63.169.171.112.307.276.399.492.085.215.139.478.139.782v2.15h-.693V7.308zm5.839 2.196c-.326 0-.607-.061-.834-.182a1.253 1.253 0 01-.527-.544 1.91 1.91 0 01-.181-.858v-.4c0-.351.056-.652.176-.9.116-.247.286-.436.509-.566.216-.128.486-.193.792-.193.3 0 .55.074.757.22.21.148.366.364.473.643.114.279.165.616.165 1.007v.231h-2.37v-.56h1.714c-.018-.289-.092-.514-.223-.671a.615.615 0 00-.516-.243c-.254 0-.46.088-.604.26-.143.174-.217.418-.217.733v.452c0 .292.08.517.234.674.154.158.37.236.652.236.136 0 .279-.029.417-.085.136-.057.264-.137.37-.238l.454.456a1.814 1.814 0 01-.585.389c-.216.094-.44.139-.656.139zm2.839-3.591h.692v3.541h-.692V5.913zm2.138 1.395c0-.251-.065-.447-.2-.582-.126-.135-.304-.204-.537-.204-.225 0-.401.06-.52.182-.127.119-.19.29-.19.507l-.069-.68c.11-.216.248-.38.424-.497.177-.115.371-.173.583-.173.382 0 .674.126.886.378.206.25.315.604.315 1.065v2.15h-.692V7.308zM58.4 9.472c-.286 0-.498-.08-.63-.238-.129-.16-.2-.391-.2-.701V5.189h.692v3.348c0 .088.017.156.051.203a.19.19 0 00.15.065h.33v.667H58.4zm-1.19-3.56h1.583v.627H57.21v-.626zm6.76 3.592c-.204 0-.399-.02-.582-.061a1.87 1.87 0 01-.509-.186 1.886 1.886 0 01-.44-.306l.411-.508c.188.146.378.256.565.328.19.072.373.11.556.11.274 0 .48-.044.618-.128a.428.428 0 00.206-.386c0-.115-.041-.198-.117-.254a.607.607 0 00-.272-.115 7.19 7.19 0 00-.47-.054h-.057c-.022 0-.04-.007-.058-.007h-.029c-.011-.002-.016-.002-.026-.002a2.589 2.589 0 01-.579-.101.747.747 0 01-.392-.274c-.11-.133-.161-.326-.161-.58 0-.247.051-.456.154-.622a.881.881 0 01.45-.373c.202-.081.458-.124.755-.124.183 0 .361.018.527.052.165.033.324.083.473.15a2.6 2.6 0 01.442.254l-.42.51a2.23 2.23 0 00-.52-.256 1.55 1.55 0 00-.502-.085c-.234 0-.41.04-.525.121-.12.079-.178.2-.178.362 0 .097.035.169.103.216a.58.58 0 00.252.094c.103.018.246.029.435.04a.102.102 0 00.038.007c.018 0 .03 0 .047.003h.022s.014 0 .018.004c.246.014.455.047.627.096a.849.849 0 01.436.3c.12.146.178.357.178.638 0 .256-.053.467-.16.636a.974.974 0 01-.492.373c-.218.088-.493.128-.823.128zm3.829-.032c-.286 0-.492-.08-.623-.238-.132-.16-.201-.391-.201-.701V5.189h.692v3.348c0 .088.017.156.051.203a.178.178 0 00.147.065h.333v.667h-.4zm-1.184-3.56h1.583v.627h-1.583v-.626zm4.44 3.592c-.302 0-.565-.061-.781-.18a1.185 1.185 0 01-.494-.528 1.86 1.86 0 01-.176-.834v-.575c0-.321.062-.596.176-.825.11-.23.281-.402.494-.521.216-.122.48-.18.78-.18.309 0 .572.058.784.18.217.119.384.292.502.521.11.23.168.504.168.825v.587c0 .32-.058.597-.168.826a1.243 1.243 0 01-.502.524c-.212.119-.475.18-.783.18zm0-.661c.247 0 .43-.076.56-.229.132-.153.2-.367.2-.64v-.587c0-.276-.068-.488-.2-.638-.13-.15-.313-.227-.56-.227-.239 0-.429.076-.56.227-.132.15-.195.362-.195.638v.587c0 .273.063.487.194.64.132.153.322.229.56.229zm2.995-2.93h.69v3.541h-.69V5.913zm1.935.838a.606.606 0 00-.233-.17.837.837 0 00-.32-.06c-.217 0-.39.062-.51.185-.124.121-.182.29-.182.505l-.067-.68c.106-.214.245-.378.417-.495a.988.988 0 01.565-.175c.165 0 .308.023.44.07a.972.972 0 01.343.206l-.453.614zm2.955 2.753c-.326 0-.6-.061-.835-.182a1.24 1.24 0 01-.524-.544c-.12-.236-.179-.526-.179-.858v-.4c0-.351.058-.652.172-.9.116-.247.288-.436.509-.566.216-.128.486-.193.801-.193.29 0 .542.074.754.22.206.148.364.364.473.643.11.279.16.616.16 1.007v.231H77.9v-.56h1.714c-.016-.289-.092-.514-.223-.671a.607.607 0 00-.507-.243c-.263 0-.469.088-.611.26-.145.174-.213.418-.213.733v.452c0 .292.074.517.228.674.154.158.37.236.652.236.143 0 .279-.029.417-.085.136-.057.264-.137.37-.238l.458.456a1.9 1.9 0 01-.587.389 1.642 1.642 0 01-.658.139z" fill="#050001"/></svg>