<svg width="12" height="12" viewBox="0 0 12 12" fill="none" xmlns="http://www.w3.org/2000/svg">
<g clip-path="url(#clip0)">
<path d="M11.5458 4.95727L6.6511 4.95703C6.43496 4.95703 6.25977 5.1322 6.25977 5.34834V6.91198C6.25977 7.12807 6.43496 7.30329 6.65108 7.30329H9.40746C9.10564 8.08659 8.54229 8.74259 7.82356 9.1594L8.99888 11.194C10.8842 10.1036 11.9989 8.19042 11.9989 6.04875C11.9989 5.7438 11.9764 5.52581 11.9314 5.28035C11.8973 5.09386 11.7354 4.95727 11.5458 4.95727Z" fill="white"/>
<path d="M6.00013 9.65185C4.65121 9.65185 3.47362 8.91484 2.84116 7.82422L0.806641 8.99689C1.84199 10.7913 3.78154 11.9997 6.00013 11.9997C7.0885 11.9997 8.11546 11.7066 9.00013 11.196V11.1932L7.82481 9.15856C7.2872 9.47037 6.66508 9.65185 6.00013 9.65185Z" fill="white"/>
<path d="M9 11.1976V11.1948L7.82468 9.16016C7.28707 9.47195 6.66499 9.65345 6 9.65345V12.0013C7.08837 12.0013 8.11538 11.7082 9 11.1976Z" fill="white"/>
<path d="M2.34783 6.00112C2.34783 5.33622 2.52928 4.71416 2.84102 4.17658L0.806508 3.00391C0.293016 3.88579 0 4.90996 0 6.00112C0 7.09227 0.293016 8.11644 0.806508 8.99832L2.84102 7.82565C2.52928 7.28807 2.34783 6.66601 2.34783 6.00112Z" fill="white"/>
<path d="M6.00013 2.34783C6.87977 2.34783 7.68775 2.66039 8.31885 3.1803C8.47455 3.30855 8.70084 3.2993 8.84345 3.15668L9.95134 2.04879C10.1132 1.88698 10.1016 1.62211 9.92877 1.47216C8.87139 0.554836 7.49561 0 6.00013 0C3.78154 0 1.84199 1.20837 0.806641 3.00279L2.84116 4.17546C3.47362 3.08484 4.65121 2.34783 6.00013 2.34783Z" fill="white"/>
<path d="M8.31872 3.1803C8.47442 3.30855 8.70073 3.2993 8.84332 3.15668L9.95121 2.04879C10.113 1.88698 10.1015 1.62211 9.92864 1.47216C8.87126 0.554813 7.49548 0 6 0V2.34783C6.87961 2.34783 7.68762 2.66039 8.31872 3.1803Z" fill="white"/>
</g>
<defs>
<clipPath id="clip0">
<rect width="12" height="12" fill="white"/>
</clipPath>
</defs>
</svg>
