<svg width="16" height="16" viewBox="0 0 16 16" fill="none" xmlns="http://www.w3.org/2000/svg">
<path d="M15.0264 4.2813C14.9472 3.96491 14.7859 3.67502 14.5588 3.44091C14.3317 3.2068 14.0469 3.03676 13.7331 2.94797C12.5864 2.66797 7.99973 2.66797 7.99973 2.66797C7.99973 2.66797 3.41306 2.66797 2.2664 2.97464C1.95256 3.06343 1.66771 3.23346 1.44063 3.46757C1.21354 3.70168 1.05226 3.99158 0.973063 4.30797C0.763206 5.47167 0.660554 6.65217 0.666397 7.83464C0.658916 9.026 0.761575 10.2155 0.973063 11.388C1.06037 11.6945 1.22527 11.9734 1.45183 12.1976C1.67838 12.4218 1.95894 12.5838 2.2664 12.668C3.41306 12.9746 7.99973 12.9746 7.99973 12.9746C7.99973 12.9746 12.5864 12.9746 13.7331 12.668C14.0469 12.5792 14.3317 12.4091 14.5588 12.175C14.7859 11.9409 14.9472 11.651 15.0264 11.3346C15.2346 10.1797 15.3373 9.00819 15.3331 7.83464C15.3405 6.64327 15.2379 5.45377 15.0264 4.2813Z" fill="white"/>
<path d="M6.5 10.0123L10.3333 7.83234L6.5 5.65234V10.0123Z" fill="black"/>
</svg>
