<svg width="28" height="9" viewBox="0 0 28 9" fill="none" xmlns="http://www.w3.org/2000/svg">
<g clip-path="url(#clip0)">
<path fill-rule="evenodd" clip-rule="evenodd" d="M20.0547 4.22656V8.74941H22.4133V6.0692H25.0864C26.2115 6.0603 27.1671 5.2947 27.5275 4.22656H20.0547Z" fill="#37A72E"/>
<path fill-rule="evenodd" clip-rule="evenodd" d="M19.7402 0.5C19.8776 2.34869 21.5193 3.80838 23.5244 3.80838C23.5309 3.80838 27.6255 3.80838 27.6255 3.80838C27.6558 3.63883 27.6716 3.46383 27.6716 3.2849C27.6716 1.75349 26.5118 0.511329 25.0771 0.500077L19.7402 0.5Z" fill="url(#paint0_linear)"/>
<path fill-rule="evenodd" clip-rule="evenodd" d="M16.2486 3.76438L16.2504 3.76016L16.2507 3.76023C16.2748 3.71401 16.3212 3.68274 16.3744 3.68274C16.4512 3.68274 16.5137 3.74798 16.5158 3.8293L16.5159 3.82931V8.70812H18.8745V0.5H16.5159C16.2168 0.510606 15.8789 0.744426 15.7532 1.03145L13.8762 5.31964C13.8716 5.33717 13.8643 5.35353 13.8549 5.36822L13.8543 5.36965L13.8541 5.36957C13.8257 5.41312 13.7784 5.44162 13.7248 5.44162C13.638 5.44162 13.5676 5.36663 13.5676 5.27411V0.5H11.209V8.70812H13.5676V8.70718C13.8634 8.69072 14.1934 8.45954 14.3172 8.17668L16.2437 3.77544C16.2452 3.77168 16.2468 3.76799 16.2486 3.76438Z" fill="#37A72E"/>
<path fill-rule="evenodd" clip-rule="evenodd" d="M7.44151 3.90469L6.063 8.70812H4.36626L2.98691 3.90177C2.97361 3.82481 2.9103 3.7665 2.83421 3.7665C2.74845 3.7665 2.67893 3.84056 2.67893 3.93192C2.67893 3.93261 2.67894 3.93331 2.67895 3.93401L2.67893 8.70812H0.320312V0.5H2.3448H2.94773C3.38172 0.5 3.83651 0.858804 3.96334 1.30072L5.11122 5.30052C5.16833 5.49953 5.26099 5.49932 5.31804 5.30052L6.46592 1.30072C6.59283 0.858496 7.04748 0.5 7.48153 0.5L8.08428 0.5H10.1086V8.70812H7.74997V3.93401C7.74996 3.93331 7.74997 3.93261 7.74997 3.93192C7.74997 3.84056 7.68045 3.7665 7.59469 3.7665C7.51764 3.7665 7.4537 3.82629 7.44151 3.90469Z" fill="#37A72E"/>
</g>
<defs>
<linearGradient id="paint0_linear" x1="19.7402" y1="2.15419" x2="27.6716" y2="2.15419" gradientUnits="userSpaceOnUse">
<stop stop-color="#00A0E5"/>
<stop offset="1" stop-color="#0077C3"/>
</linearGradient>
<clipPath id="clip0">
<rect width="27.36" height="8.25" fill="white" transform="translate(0.320312 0.5)"/>
</clipPath>
</defs>
</svg>
