<svg width="29" height="12" viewBox="0 0 29 12" fill="none" xmlns="http://www.w3.org/2000/svg">
<path d="M5.57751 1.64596C5.24794 2.04239 4.72063 2.35507 4.19332 2.3104C4.1274 1.77438 4.38557 1.20486 4.68767 0.853091C5.01724 0.445492 5.59399 0.155147 6.06088 0.132812C6.1158 0.691168 5.90158 1.23836 5.57751 1.64596ZM6.05538 2.41649C5.29188 2.37182 4.63824 2.85759 4.27571 2.85759C3.90769 2.85759 3.35292 2.43882 2.74871 2.44999C1.96323 2.46116 1.23269 2.91342 0.831714 3.6337C0.00779167 5.07426 0.617494 7.20718 1.41395 8.37973C1.80394 8.96042 2.27083 9.59694 2.88603 9.57461C3.46827 9.55227 3.69896 9.18934 4.40205 9.18934C5.11062 9.18934 5.31385 9.57461 5.92905 9.56344C6.56622 9.55227 6.96719 8.98275 7.35718 8.40206C7.8021 7.7432 7.98336 7.10109 7.99435 7.06759C7.98336 7.05642 6.76396 6.58182 6.75297 5.15243C6.74199 3.95755 7.71421 3.38803 7.75816 3.35453C7.20887 2.52816 6.352 2.43882 6.05538 2.41649ZM10.4661 0.797256V9.50202H11.7954V6.52599H13.6355C15.3163 6.52599 16.4972 5.35344 16.4972 3.65604C16.4972 1.95864 15.3382 0.797256 13.6794 0.797256H10.4661ZM11.7954 1.9363H13.3279C14.4814 1.9363 15.1405 2.56166 15.1405 3.66162C15.1405 4.76158 14.4814 5.39252 13.3224 5.39252H11.7954V1.9363ZM18.9251 9.56902C19.76 9.56902 20.5344 9.13909 20.886 8.4579H20.9135V9.50202H22.1438V5.16918C22.1438 3.91288 21.1551 3.10326 19.6336 3.10326C18.222 3.10326 17.1783 3.92405 17.1399 5.05193H18.3373C18.4362 4.5159 18.9251 4.16414 19.5952 4.16414C20.4081 4.16414 20.864 4.54941 20.864 5.25852V5.7387L19.2052 5.83921C17.6617 5.93413 16.8268 6.57624 16.8268 7.69295C16.8268 8.82083 17.6892 9.56902 18.9251 9.56902ZM19.2821 8.53607C18.5735 8.53607 18.1231 8.18989 18.1231 7.65945C18.1231 7.11226 18.557 6.794 19.3864 6.74374L20.864 6.64882V7.14018C20.864 7.95538 20.1829 8.53607 19.2821 8.53607ZM23.7862 11.8694C25.0825 11.8694 25.6922 11.3669 26.225 9.84262L28.5595 3.18702H27.2082L25.6428 8.32947H25.6153L24.0499 3.18702H22.6602L24.9122 9.52435L24.7914 9.90962C24.5881 10.5629 24.2586 10.8142 23.6708 10.8142C23.5665 10.8142 23.3632 10.803 23.2809 10.7918V11.8359C23.3578 11.8583 23.6873 11.8694 23.7862 11.8694Z" fill="black"/>
</svg>
